<?xml version="1.0" encoding="UTF-8"?><svg xmlns="http://www.w3.org/2000/svg" xmlns:xlink="http://www.w3.org/1999/xlink" width="810" zoomAndPan="magnify" viewBox="0 0 810 809.999993" height="809.999993" preserveAspectRatio="xMidYMid meet" version="1.0"><defs><clipPath id="clip-0"><path d="M 138 149.265625 L 696 149.265625 L 696 640 L 138 640 Z M 138 149.265625 " clip-rule="nonzero"/></clipPath></defs><rect x="-81" width="972" fill="rgb(100%, 100%, 100%)" y="-80.999999" height="971.999992" fill-opacity="1"/><rect x="-81" width="972" fill="rgb(100%, 100%, 100%)" y="-80.999999" height="971.999992" fill-opacity="1"/><rect x="-81" width="972" fill="rgb(0%, 0%, 0%)" y="-80.999999" height="971.999992" fill-opacity="1"/><g clip-path="url(#clip-0)"><path fill="rgb(85.488892%, 65.879822%, 34.899902%)" d="M 256.398438 161.824219 C 255.238281 167.222656 255.285156 174.285156 255.339844 181.34375 C 256.09375 222.0625 261.753906 256.949219 304.0625 287.28125 C 352.910156 322.304688 450.605469 343.164062 517.238281 378.953125 C 583.871094 414.742188 619.441406 465.46875 643.984375 511.453125 C 668.535156 557.433594 682.058594 598.675781 695.585938 639.917969 L 404.601562 639.917969 C 257.660156 639.917969 138.546875 520.851562 138.546875 373.976562 C 138.546875 289.59375 177.867188 221.273438 239.1875 173.628906 C 244.960938 169.144531 250.074219 165.480469 256.398438 161.824219 Z M 277.871094 307.695312 C 282.078125 317.195312 287.582031 326.457031 294.074219 335.402344 C 301.195312 345.21875 309.488281 354.644531 318.566406 363.59375 C 328.816406 373.707031 340.085938 383.253906 351.820312 392.121094 C 364.90625 402.011719 378.53125 411.027344 391.953125 419.039062 C 398.804688 423.125 405.710938 427.003906 412.5625 430.738281 L 433.121094 441.695312 C 450.382812 450.8125 466.816406 459.484375 481.835938 469.335938 C 497.097656 479.335938 510.933594 490.550781 522.75 504.625 C 530.007812 513.285156 536.351562 522.875 541.964844 533.171875 C 547.542969 543.410156 552.367188 554.289062 556.640625 565.621094 C 559.398438 572.941406 561.953125 580.519531 564.351562 588.273438 C 566.335938 594.683594 568.207031 601.199219 569.996094 607.792969 L 650.929688 607.792969 C 646.707031 595.90625 642.148438 583.835938 636.980469 571.453125 C 630.835938 556.730469 623.890625 541.785156 615.738281 526.507812 C 610.121094 515.980469 603.855469 505.152344 596.679688 494.332031 C 589.539062 483.570312 581.535156 472.882812 572.417969 462.585938 C 563.464844 452.476562 553.296875 442.617188 541.652344 433.277344 C 530.027344 423.964844 516.917969 415.171875 502.046875 407.183594 C 487.859375 399.5625 472.078125 392.625 455.621094 386.074219 C 439.027344 379.464844 421.6875 373.214844 404.574219 367.054688 C 359.171875 350.703125 315.402344 334.929688 285.359375 313.382812 C 282.761719 311.519531 280.265625 309.621094 277.871094 307.695312 Z M 229.402344 267.890625 C 226.871094 277.609375 224.886719 287.355469 223.585938 297.167969 C 221.976562 309.335938 221.375 321.71875 221.984375 334 C 222.558594 345.609375 224.207031 357.125 227.082031 368.277344 C 229.742188 378.609375 233.480469 388.695312 238.417969 398.324219 C 243.074219 407.414062 248.832031 416.132812 255.785156 424.28125 C 264.042969 433.960938 274.148438 443.046875 285.140625 451.800781 C 296.414062 460.777344 308.257812 469.167969 320.042969 477.515625 L 320.34375 477.714844 C 343.628906 494.207031 366.773438 510.597656 384.738281 529.882812 C 391.992188 537.667969 398.359375 545.882812 403.976562 554.429688 C 409.570312 562.921875 414.402344 571.726562 418.648438 580.746094 C 421.058594 585.878906 423.242188 590.96875 425.226562 596.003906 C 426.71875 599.800781 428.164062 603.738281 429.554688 607.792969 L 531.175781 607.792969 L 527.679688 596.253906 C 525.824219 590.425781 523.824219 584.601562 521.632812 578.796875 C 517.984375 569.109375 513.941406 559.921875 509.367188 551.453125 C 504.835938 543.050781 499.785156 535.367188 494.105469 528.625 C 475.265625 506.242188 447.003906 491.316406 415.695312 474.785156 C 409.140625 471.328125 402.449219 467.792969 394.742188 463.585938 C 387.550781 459.660156 380.222656 455.535156 372.769531 451.09375 C 358.089844 442.335938 343.238281 432.503906 329.03125 421.753906 C 316.15625 412.011719 303.738281 401.476562 292.347656 390.238281 C 281.675781 379.703125 271.859375 368.519531 263.375 356.769531 C 255.445312 345.785156 248.6875 334.332031 243.484375 322.503906 C 237.464844 308.808594 233.515625 294.746094 231.125 280.421875 C 230.425781 276.257812 229.859375 272.054688 229.402344 267.890625 Z M 187.285156 287.109375 C 183.359375 296.921875 180.085938 307.058594 177.511719 317.472656 C 173.050781 335.515625 170.683594 354.445312 170.683594 373.976562 C 170.683594 405.675781 176.980469 435.890625 188.382812 463.414062 C 200.226562 491.988281 217.605469 517.734375 239.191406 539.3125 C 278.210938 578.3125 330.941406 603.605469 389.507812 607.332031 L 388.789062 605.578125 L 384.8125 596.558594 C 381.355469 589.199219 377.417969 582.035156 372.886719 575.148438 C 368.390625 568.3125 363.253906 561.691406 357.351562 555.355469 C 341.6875 538.539062 320.300781 523.398438 298.765625 508.152344 C 272.875 489.824219 246.789062 471.347656 227.371094 448.585938 C 218.550781 438.238281 211.21875 427.140625 205.257812 415.519531 C 199.007812 403.332031 194.277344 390.574219 190.910156 377.503906 C 187.40625 363.902344 185.390625 350.003906 184.683594 336.101562 C 183.929688 321.453125 184.628906 306.746094 186.539062 292.332031 Z M 537.261719 149.265625 C 556.195312 149.265625 571.6875 164.746094 571.6875 183.675781 L 571.6875 218.085938 C 571.6875 226.921875 570.125 230.722656 564.628906 238.714844 L 564.628906 316.726562 C 564.628906 338.042969 549.769531 356.0625 529.894531 360.933594 C 524.257812 353.027344 517.515625 348.679688 507.738281 343.578125 C 494.816406 336.816406 482.765625 332.132812 457.867188 323.835938 C 432.96875 315.542969 399.53125 305.828125 374.039062 296.34375 C 348.550781 286.863281 331 277.621094 316.835938 265.53125 C 304.808594 255.269531 295.226562 242.957031 289.304688 231.96875 C 287.199219 227.316406 285.097656 222.667969 283.238281 216.976562 C 281.730469 212.355469 280.382812 207.046875 279.332031 200.5 C 277.882812 191.507812 276.980469 180.164062 276.3125 167.929688 C 275.714844 156.984375 285.203125 149.265625 298.230469 149.265625 Z M 537.847656 271.394531 L 535.199219 274.085938 C 522.390625 286.882812 508.199219 298.308594 492.871094 308.105469 L 499.476562 310.640625 C 508.625 314.328125 509.316406 314.394531 516.957031 318.386719 C 519.667969 319.800781 529.84375 327.441406 531.898438 330.398438 L 533.882812 328.226562 C 536.363281 325.070312 537.847656 321.078125 537.847656 316.726562 Z M 537.261719 176.035156 L 303.601562 176.035156 C 304.164062 183.945312 304.832031 190.964844 305.695312 196.316406 C 306.101562 198.871094 306.5625 201.144531 307.054688 203.1875 L 308.660156 208.71875 C 309.324219 210.753906 310.078125 212.710938 310.871094 214.613281 L 313.292969 220.136719 C 315.585938 224.261719 318.5 228.566406 321.976562 232.734375 C 325.691406 237.207031 329.800781 241.488281 334.203125 245.246094 C 339.875 250.085938 346.242188 254.371094 353.742188 258.386719 C 361.992188 262.808594 371.703125 267.023438 383.347656 271.351562 C 398.074219 276.828125 417.851562 283.058594 436.527344 288.9375 C 443.164062 291.027344 449.613281 293.0625 458.417969 295.949219 C 479.671875 285.226562 498.976562 271.191406 515.640625 254.535156 C 526.597656 243.585938 536.417969 231.496094 544.902344 218.464844 L 544.902344 183.675781 C 544.902344 179.46875 541.46875 176.035156 537.261719 176.035156 Z M 395.65625 188.246094 C 395.65625 209.058594 378.777344 212.28125 357.953125 212.28125 C 337.132812 212.28125 320.25 209.058594 320.25 188.246094 Z M 395.65625 188.246094 " fill-opacity="1" fill-rule="evenodd"/></g></svg>