<?xml version="1.0" encoding="UTF-8"?><svg xmlns="http://www.w3.org/2000/svg" xmlns:xlink="http://www.w3.org/1999/xlink" width="810" zoomAndPan="magnify" viewBox="0 0 810 809.999993" height="809.999993" preserveAspectRatio="xMidYMid meet" version="1.0"><defs><clipPath id="clip-0"><path d="M 198 198.453125 L 611.933594 198.453125 L 611.933594 611.703125 L 198 611.703125 Z M 198 198.453125 " clip-rule="nonzero"/></clipPath></defs><g clip-path="url(#clip-0)"><path fill="rgb(0%, 0%, 0%)" d="M 610.890625 587.972656 C 610.960938 587.863281 611.011719 587.75 611.070312 587.636719 C 611.15625 587.488281 611.246094 587.339844 611.3125 587.179688 C 611.375 587.03125 611.410156 586.875 611.453125 586.722656 C 611.492188 586.589844 611.546875 586.460938 611.574219 586.320312 C 611.691406 585.726562 611.691406 585.117188 611.574219 584.519531 C 611.546875 584.382812 611.492188 584.253906 611.453125 584.121094 C 611.410156 583.96875 611.375 583.8125 611.3125 583.664062 C 611.246094 583.503906 611.15625 583.355469 611.070312 583.207031 C 611.011719 583.09375 610.960938 582.980469 610.890625 582.871094 C 610.722656 582.617188 610.527344 582.378906 610.3125 582.164062 L 588.585938 560.421875 C 586.792969 558.625 583.878906 558.625 582.085938 560.421875 C 580.292969 562.214844 580.292969 565.128906 582.085938 566.921875 L 595.976562 580.820312 L 561.496094 580.820312 L 561.496094 345.640625 C 561.496094 343.101562 559.441406 341.042969 556.902344 341.042969 L 513.765625 341.042969 C 511.226562 341.042969 509.171875 343.101562 509.171875 345.640625 L 509.171875 580.824219 L 496.097656 580.824219 L 496.097656 407.960938 C 496.097656 405.421875 494.042969 403.359375 491.503906 403.359375 L 448.367188 403.359375 C 445.832031 403.359375 443.773438 405.421875 443.773438 407.960938 L 443.773438 580.824219 L 430.703125 580.824219 L 430.703125 452.011719 C 430.703125 449.472656 428.644531 447.414062 426.105469 447.414062 L 382.972656 447.414062 C 380.433594 447.414062 378.375 449.472656 378.375 452.011719 L 378.375 580.824219 L 365.304688 580.824219 L 365.304688 486.050781 C 365.304688 483.511719 363.246094 481.453125 360.707031 481.453125 L 317.574219 481.453125 C 315.035156 481.453125 312.976562 483.511719 312.976562 486.050781 L 312.976562 580.824219 L 299.90625 580.824219 L 299.90625 514.417969 C 299.90625 511.878906 297.847656 509.820312 295.3125 509.820312 L 252.175781 509.820312 C 249.640625 509.820312 247.582031 511.878906 247.582031 514.417969 L 247.582031 580.824219 L 229.585938 580.824219 L 229.585938 214.175781 L 243.472656 228.074219 C 244.371094 228.972656 245.546875 229.421875 246.722656 229.421875 C 247.898438 229.421875 249.074219 228.972656 249.972656 228.074219 C 251.769531 226.277344 251.769531 223.367188 249.972656 221.570312 L 228.242188 199.824219 C 228.230469 199.8125 228.214844 199.804688 228.207031 199.792969 C 228 199.59375 227.78125 199.410156 227.539062 199.25 C 227.425781 199.175781 227.304688 199.121094 227.183594 199.058594 C 227.039062 198.976562 226.902344 198.890625 226.75 198.828125 C 226.601562 198.765625 226.445312 198.730469 226.292969 198.6875 C 226.160156 198.644531 226.03125 198.59375 225.890625 198.566406 C 225.609375 198.511719 225.324219 198.480469 225.039062 198.480469 C 225.023438 198.480469 225.007812 198.476562 224.992188 198.476562 C 224.976562 198.476562 224.960938 198.480469 224.945312 198.480469 C 224.660156 198.480469 224.375 198.511719 224.09375 198.566406 C 223.953125 198.59375 223.824219 198.644531 223.691406 198.6875 C 223.539062 198.730469 223.382812 198.765625 223.234375 198.828125 C 223.082031 198.890625 222.941406 198.976562 222.796875 199.058594 C 222.679688 199.121094 222.558594 199.175781 222.445312 199.25 C 222.203125 199.410156 221.984375 199.59375 221.777344 199.792969 C 221.769531 199.804688 221.753906 199.8125 221.742188 199.824219 L 200.011719 221.570312 C 198.214844 223.367188 198.214844 226.28125 200.011719 228.074219 C 201.804688 229.871094 204.714844 229.871094 206.507812 228.074219 L 220.398438 214.175781 L 220.398438 585.421875 C 220.398438 587.964844 222.453125 590.019531 224.992188 590.019531 L 595.976562 590.019531 L 582.089844 603.917969 C 580.292969 605.714844 580.292969 608.625 582.089844 610.421875 C 582.988281 611.320312 584.164062 611.769531 585.339844 611.769531 C 586.515625 611.769531 587.691406 611.320312 588.585938 610.421875 L 610.316406 588.679688 C 610.53125 588.464844 610.722656 588.226562 610.890625 587.972656 Z M 256.773438 580.824219 L 256.773438 519.019531 L 290.71875 519.019531 L 290.71875 580.824219 Z M 322.171875 580.824219 L 322.171875 490.652344 L 356.113281 490.652344 L 356.113281 580.824219 Z M 387.566406 580.824219 L 387.566406 456.613281 L 421.511719 456.613281 L 421.511719 580.824219 Z M 452.964844 580.824219 L 452.964844 412.558594 L 486.910156 412.558594 L 486.910156 580.824219 Z M 518.363281 580.824219 L 518.363281 350.238281 L 552.304688 350.238281 L 552.304688 580.824219 Z M 518.363281 580.824219 " fill-opacity="1" fill-rule="nonzero"/></g><path fill="rgb(0%, 0%, 0%)" d="M 269.175781 452.234375 C 269.179688 452.375 269.171875 452.519531 269.191406 452.660156 C 269.207031 452.800781 269.25 452.941406 269.28125 453.082031 C 269.316406 453.234375 269.339844 453.386719 269.390625 453.539062 C 269.429688 453.660156 269.492188 453.78125 269.546875 453.902344 C 269.613281 454.0625 269.679688 454.222656 269.765625 454.375 C 269.777344 454.398438 269.785156 454.417969 269.796875 454.4375 C 269.921875 454.652344 270.070312 454.847656 270.222656 455.035156 C 270.238281 455.050781 270.242188 455.066406 270.257812 455.082031 C 270.277344 455.105469 270.300781 455.117188 270.320312 455.140625 C 270.527344 455.375 270.753906 455.59375 271 455.777344 C 271 455.777344 271.003906 455.78125 271.003906 455.78125 C 271.246094 455.960938 271.503906 456.105469 271.769531 456.234375 C 271.820312 456.257812 271.871094 456.28125 271.921875 456.304688 C 272.179688 456.417969 272.449219 456.503906 272.722656 456.566406 C 272.773438 456.578125 272.828125 456.585938 272.878906 456.597656 C 273.167969 456.652344 273.457031 456.691406 273.75 456.691406 C 273.988281 456.691406 274.230469 456.664062 274.46875 456.628906 C 274.535156 456.617188 274.597656 456.601562 274.664062 456.585938 C 274.835938 456.550781 275.007812 456.507812 275.175781 456.453125 C 275.253906 456.425781 275.328125 456.402344 275.402344 456.375 C 275.585938 456.300781 275.765625 456.21875 275.941406 456.121094 C 275.984375 456.097656 276.03125 456.082031 276.070312 456.054688 C 276.078125 456.050781 276.085938 456.046875 276.09375 456.042969 L 447.734375 354.074219 L 457.351562 367.5 C 457.351562 367.503906 457.355469 367.503906 457.355469 367.507812 C 457.511719 367.722656 457.6875 367.917969 457.871094 368.097656 C 457.910156 368.136719 457.953125 368.175781 457.992188 368.214844 C 458.1875 368.390625 458.390625 368.550781 458.605469 368.691406 C 458.636719 368.710938 458.671875 368.726562 458.703125 368.746094 C 458.917969 368.878906 459.140625 368.988281 459.371094 369.082031 C 459.40625 369.097656 459.4375 369.113281 459.472656 369.125 C 459.726562 369.222656 459.988281 369.289062 460.257812 369.339844 C 460.285156 369.34375 460.3125 369.355469 460.339844 369.359375 C 460.367188 369.367188 460.394531 369.363281 460.421875 369.367188 C 460.640625 369.398438 460.859375 369.421875 461.078125 369.421875 C 461.082031 369.421875 461.085938 369.421875 461.09375 369.421875 C 461.105469 369.421875 461.121094 369.417969 461.132812 369.417969 C 461.375 369.414062 461.613281 369.394531 461.847656 369.355469 C 461.9375 369.339844 462.019531 369.3125 462.109375 369.292969 C 462.269531 369.257812 462.425781 369.21875 462.585938 369.164062 C 462.679688 369.128906 462.773438 369.089844 462.867188 369.050781 C 463.003906 368.988281 463.140625 368.929688 463.273438 368.855469 C 463.375 368.800781 463.464844 368.742188 463.5625 368.683594 C 463.628906 368.640625 463.699219 368.609375 463.765625 368.5625 C 463.808594 368.53125 463.839844 368.492188 463.882812 368.457031 C 464.027344 368.347656 464.164062 368.222656 464.296875 368.09375 C 464.375 368.015625 464.457031 367.945312 464.527344 367.863281 C 464.648438 367.722656 464.757812 367.570312 464.863281 367.414062 C 464.917969 367.335938 464.984375 367.257812 465.03125 367.175781 C 465.144531 366.992188 465.230469 366.792969 465.316406 366.589844 C 465.34375 366.527344 465.378906 366.46875 465.402344 366.40625 C 465.5 366.140625 465.574219 365.863281 465.621094 365.574219 L 474.429688 312.136719 C 474.84375 309.632812 473.144531 307.265625 470.644531 306.851562 L 417.246094 298.039062 C 416.949219 297.988281 416.648438 297.972656 416.347656 297.980469 C 416.164062 297.984375 415.984375 298.019531 415.800781 298.050781 C 415.6875 298.066406 415.574219 298.070312 415.464844 298.097656 C 415.246094 298.144531 415.042969 298.226562 414.835938 298.304688 C 414.761719 298.332031 414.6875 298.347656 414.613281 298.382812 C 414.054688 298.632812 413.554688 298.996094 413.136719 299.441406 C 413.0625 299.523438 413.003906 299.613281 412.9375 299.699219 C 412.816406 299.847656 412.695312 299.992188 412.59375 300.152344 C 412.515625 300.28125 412.460938 300.417969 412.394531 300.550781 C 412.328125 300.6875 412.25 300.816406 412.199219 300.957031 C 412.097656 301.226562 412.023438 301.5 411.976562 301.78125 C 411.972656 301.800781 411.964844 301.8125 411.960938 301.828125 C 411.960938 301.84375 411.960938 301.859375 411.960938 301.875 C 411.914062 302.160156 411.898438 302.445312 411.90625 302.730469 C 411.910156 302.875 411.941406 303.007812 411.957031 303.148438 C 411.976562 303.304688 411.988281 303.464844 412.023438 303.621094 C 412.0625 303.785156 412.125 303.941406 412.179688 304.097656 C 412.226562 304.222656 412.257812 304.351562 412.3125 304.472656 C 412.4375 304.75 412.585938 305.011719 412.761719 305.257812 L 422.378906 318.683594 L 270.757812 448.601562 C 270.742188 448.613281 270.730469 448.632812 270.714844 448.648438 C 270.578125 448.765625 270.464844 448.898438 270.347656 449.03125 C 270.257812 449.128906 270.164062 449.21875 270.085938 449.320312 C 269.992188 449.445312 269.917969 449.582031 269.835938 449.71875 C 269.761719 449.839844 269.679688 449.960938 269.617188 450.089844 C 269.554688 450.214844 269.511719 450.351562 269.464844 450.484375 C 269.410156 450.628906 269.347656 450.769531 269.308594 450.917969 C 269.273438 451.058594 269.257812 451.203125 269.234375 451.347656 C 269.210938 451.492188 269.175781 451.632812 269.164062 451.78125 C 269.15625 451.929688 269.167969 452.082031 269.175781 452.234375 Z M 458.355469 353.121094 L 452.746094 345.289062 C 452.695312 345.214844 452.628906 345.160156 452.574219 345.09375 C 452.472656 344.964844 452.367188 344.84375 452.253906 344.730469 C 452.148438 344.625 452.042969 344.53125 451.933594 344.441406 C 451.8125 344.339844 451.691406 344.246094 451.5625 344.160156 C 451.441406 344.078125 451.316406 344.003906 451.1875 343.9375 C 451.054688 343.867188 450.925781 343.800781 450.785156 343.742188 C 450.652344 343.683594 450.515625 343.636719 450.375 343.59375 C 450.234375 343.550781 450.09375 343.511719 449.949219 343.480469 C 449.804688 343.449219 449.664062 343.429688 449.519531 343.414062 C 449.371094 343.398438 449.222656 343.386719 449.074219 343.382812 C 448.925781 343.382812 448.78125 343.386719 448.636719 343.402344 C 448.488281 343.414062 448.34375 343.429688 448.195312 343.457031 C 448.046875 343.480469 447.898438 343.519531 447.753906 343.5625 C 447.613281 343.601562 447.472656 343.648438 447.335938 343.703125 C 447.1875 343.757812 447.046875 343.828125 446.90625 343.902344 C 446.824219 343.941406 446.742188 343.96875 446.664062 344.015625 L 317.140625 420.960938 L 431.558594 322.921875 C 431.628906 322.863281 431.679688 322.792969 431.742188 322.730469 C 431.855469 322.621094 431.96875 322.507812 432.070312 322.386719 C 432.164062 322.273438 432.253906 322.15625 432.335938 322.035156 C 432.425781 321.910156 432.503906 321.78125 432.578125 321.652344 C 432.652344 321.519531 432.714844 321.386719 432.773438 321.25 C 432.832031 321.113281 432.882812 320.980469 432.929688 320.839844 C 432.976562 320.699219 433.011719 320.554688 433.042969 320.410156 C 433.074219 320.265625 433.101562 320.125 433.117188 319.980469 C 433.136719 319.835938 433.144531 319.691406 433.148438 319.542969 C 433.152344 319.394531 433.152344 319.246094 433.140625 319.097656 C 433.128906 318.953125 433.109375 318.808594 433.085938 318.667969 C 433.0625 318.519531 433.03125 318.375 432.992188 318.226562 C 432.953125 318.082031 432.902344 317.941406 432.851562 317.800781 C 432.796875 317.660156 432.742188 317.527344 432.675781 317.390625 C 432.605469 317.25 432.523438 317.117188 432.4375 316.980469 C 432.390625 316.902344 432.359375 316.824219 432.304688 316.75 L 426.695312 308.917969 L 464.613281 315.175781 Z M 458.355469 353.121094 " fill-opacity="1" fill-rule="nonzero"/></svg>