<?xml version="1.0" encoding="UTF-8"?><svg xmlns="http://www.w3.org/2000/svg" xmlns:xlink="http://www.w3.org/1999/xlink" width="810" zoomAndPan="magnify" viewBox="0 0 810 809.999993" height="809.999993" preserveAspectRatio="xMidYMid meet" version="1.0"><defs><clipPath id="clip-0"><path d="M 252 202.140625 L 551 202.140625 L 551 607.890625 L 252 607.890625 Z M 252 202.140625 " clip-rule="nonzero"/></clipPath><clipPath id="clip-1"><path d="M 212 594 L 226 594 L 226 607.890625 L 212 607.890625 Z M 212 594 " clip-rule="nonzero"/></clipPath><clipPath id="clip-2"><path d="M 198.527344 580 L 213 580 L 213 595 L 198.527344 595 Z M 198.527344 580 " clip-rule="nonzero"/></clipPath><clipPath id="clip-3"><path d="M 584 202.140625 L 599 202.140625 L 599 216 L 584 216 Z M 584 202.140625 " clip-rule="nonzero"/></clipPath><clipPath id="clip-4"><path d="M 598 215 L 611.777344 215 L 611.777344 230 L 598 230 Z M 598 215 " clip-rule="nonzero"/></clipPath></defs><g clip-path="url(#clip-0)"><path fill="rgb(0.779724%, 0.779724%, 0.779724%)" d="M 530.339844 364.441406 C 521.527344 364.441406 514.085938 370.113281 511.285156 377.964844 L 469.4375 377.964844 L 469.4375 350.914062 L 496.503906 350.914062 C 500.242188 350.914062 503.273438 347.890625 503.273438 344.152344 L 503.273438 315.859375 C 511.128906 313.058594 516.804688 305.621094 516.804688 296.816406 C 516.804688 285.628906 507.699219 276.527344 496.503906 276.527344 C 485.3125 276.527344 476.203125 285.628906 476.203125 296.816406 C 476.203125 305.621094 481.882812 313.058594 489.738281 315.859375 L 489.738281 337.390625 L 469.4375 337.390625 L 469.4375 323.867188 C 469.4375 320.125 466.40625 317.101562 462.671875 317.101562 L 449.136719 317.101562 L 449.136719 282.046875 C 456.992188 279.246094 462.671875 271.808594 462.671875 263.003906 C 462.671875 251.816406 453.5625 242.714844 442.371094 242.714844 C 431.175781 242.714844 422.070312 251.816406 422.070312 263.003906 C 422.070312 271.808594 427.746094 279.246094 435.601562 282.046875 L 435.601562 317.101562 L 408.535156 317.101562 L 408.535156 209.140625 C 408.535156 205.398438 405.503906 202.378906 401.769531 202.378906 C 318.292969 202.378906 252.898438 262.78125 252.898438 339.878906 C 252.898438 376.503906 267.445312 425 290.867188 466.425781 C 295.074219 473.863281 300.5625 481.683594 306.367188 489.960938 C 318.652344 507.453125 332.320312 527.132812 333.808594 544.261719 C 328.835938 547.765625 325.679688 553.445312 325.679688 560.316406 C 325.679688 565.078125 327.398438 569.40625 330.160156 572.875 C 326.34375 576.621094 323.949219 581.886719 323.949219 587.847656 C 323.949219 599.03125 333.058594 608.132812 344.25 608.132812 L 459.289062 608.132812 C 470.480469 608.132812 479.585938 599.03125 479.585938 587.371094 C 479.585938 581.652344 477.1875 576.5 473.363281 572.804688 C 476.128906 569.269531 477.855469 564.820312 477.855469 559.847656 C 477.855469 548.828125 469.125 540.515625 457.554688 540.515625 L 408.535156 540.515625 L 408.535156 411.777344 L 422.070312 411.777344 L 422.070312 432.066406 C 422.070312 435.804688 425.101562 438.828125 428.835938 438.828125 L 449.136719 438.828125 L 449.136719 446.835938 C 441.28125 449.632812 435.601562 457.074219 435.601562 465.878906 C 435.601562 477.0625 444.710938 486.164062 455.902344 486.164062 C 467.097656 486.164062 476.203125 477.0625 476.203125 465.878906 C 476.203125 457.074219 470.527344 449.632812 462.671875 446.835938 L 462.671875 432.066406 C 462.671875 428.324219 459.640625 425.304688 455.902344 425.304688 L 435.601562 425.304688 L 435.601562 411.777344 L 462.671875 411.777344 C 466.40625 411.777344 469.4375 408.753906 469.4375 405.015625 L 469.4375 391.492188 L 511.285156 391.492188 C 514.085938 399.339844 521.527344 405.015625 530.339844 405.015625 C 541.53125 405.015625 550.640625 395.914062 550.640625 384.726562 C 550.640625 373.542969 541.53125 364.441406 530.339844 364.441406 Z M 496.503906 290.054688 C 500.234375 290.054688 503.273438 293.082031 503.273438 296.816406 C 503.273438 300.546875 500.234375 303.578125 496.503906 303.578125 C 492.777344 303.578125 489.738281 300.546875 489.738281 296.816406 C 489.738281 293.082031 492.777344 290.054688 496.503906 290.054688 Z M 317.453125 482.195312 C 311.835938 474.1875 306.53125 466.636719 302.648438 459.769531 C 280.648438 420.851562 266.429688 373.792969 266.429688 339.878906 C 266.429688 272.4375 322.371094 219.167969 395 216.042969 L 395 263.285156 C 393.207031 263.421875 391.375 263.585938 389.414062 263.820312 C 386.535156 264.171875 384.203125 266.308594 383.613281 269.136719 L 381.550781 278.933594 C 379.851562 279.339844 378.160156 279.792969 376.46875 280.300781 L 369.71875 272.789062 C 367.792969 270.632812 364.699219 269.941406 362.027344 271.078125 C 354.703125 274.195312 347.539062 278.375 340.738281 283.5 C 338.421875 285.246094 337.484375 288.261719 338.382812 291.007812 L 341.488281 300.460938 C 340.210938 301.664062 338.964844 302.910156 337.761719 304.1875 L 328.308594 301.082031 C 325.566406 300.195312 322.542969 301.128906 320.796875 303.4375 C 315.660156 310.238281 311.476562 317.394531 308.359375 324.71875 C 307.222656 327.382812 307.910156 330.472656 310.070312 332.40625 L 317.59375 339.140625 C 317.085938 340.8125 316.632812 342.488281 316.234375 344.167969 L 305.710938 346.269531 C 302.546875 346.90625 300.265625 349.683594 300.265625 352.910156 L 300.265625 375.96875 C 300.265625 379.195312 302.546875 381.976562 305.707031 382.597656 L 316.226562 384.699219 C 316.628906 386.378906 317.082031 388.054688 317.589844 389.726562 L 310.0625 396.460938 C 307.90625 398.394531 307.222656 401.484375 308.351562 404.148438 C 311.464844 411.464844 315.652344 418.628906 320.789062 425.429688 C 322.535156 427.742188 325.566406 428.671875 328.300781 427.785156 L 337.753906 424.679688 C 338.964844 425.953125 340.203125 427.203125 341.480469 428.40625 L 338.375 437.847656 C 337.476562 440.59375 338.417969 443.617188 340.730469 445.355469 C 347.53125 450.484375 354.691406 454.664062 362.027344 457.789062 C 364.699219 458.914062 367.792969 458.234375 369.71875 456.078125 L 376.46875 448.566406 C 378.160156 449.074219 379.851562 449.53125 381.550781 449.933594 L 383.605469 459.722656 C 384.203125 462.558594 386.535156 464.695312 389.40625 465.046875 C 391.367188 465.289062 393.203125 465.453125 395 465.582031 L 395 540.496094 L 347.050781 540.496094 C 344.285156 520.574219 330.160156 500.300781 317.453125 482.195312 Z M 340.867188 364.441406 C 340.867188 395.71875 364.597656 421.53125 395 424.902344 L 395 448.160156 L 393.878906 442.839844 C 393.316406 440.148438 391.171875 438.058594 388.457031 437.570312 C 384.527344 436.867188 380.5625 435.792969 376.671875 434.390625 C 375.925781 434.128906 375.148438 433.992188 374.382812 433.992188 C 372.496094 433.992188 370.648438 434.785156 369.339844 436.246094 L 362.980469 443.339844 C 359.53125 441.621094 356.117188 439.617188 352.796875 437.359375 L 355.734375 428.425781 C 356.59375 425.804688 355.78125 422.9375 353.675781 421.152344 C 350.578125 418.527344 347.660156 415.617188 345.015625 412.5 C 343.234375 410.40625 340.351562 409.605469 337.738281 410.453125 L 328.800781 413.394531 C 326.535156 410.058594 324.539062 406.660156 322.820312 403.210938 L 329.925781 396.851562 C 331.976562 395.011719 332.707031 392.121094 331.777344 389.527344 C 330.371094 385.621094 329.300781 381.65625 328.597656 377.75 C 328.105469 375.015625 325.984375 372.859375 323.257812 372.320312 L 313.796875 370.425781 L 313.796875 358.457031 L 323.257812 356.570312 C 325.984375 356.027344 328.097656 353.878906 328.597656 351.136719 C 329.300781 347.230469 330.371094 343.265625 331.777344 339.351562 C 332.707031 336.753906 331.976562 333.859375 329.925781 332.027344 L 322.824219 325.675781 C 324.542969 322.230469 326.546875 318.828125 328.808594 315.492188 L 337.746094 318.433594 C 340.351562 319.28125 343.234375 318.480469 345.019531 316.386719 C 347.660156 313.273438 350.578125 310.359375 353.691406 307.714844 C 355.789062 305.9375 356.597656 303.0625 355.738281 300.460938 L 352.804688 291.527344 C 356.132812 289.269531 359.535156 287.265625 362.988281 285.550781 L 369.347656 292.644531 C 371.1875 294.699219 374.097656 295.414062 376.675781 294.496094 C 380.566406 293.097656 384.53125 292.027344 388.464844 291.316406 C 391.179688 290.832031 393.324219 288.746094 393.886719 286.054688 L 395 280.726562 L 395 303.976562 C 364.597656 307.351562 340.867188 333.164062 340.867188 364.441406 Z M 395 317.644531 L 395 411.238281 C 372.082031 407.9375 354.398438 388.238281 354.398438 364.441406 C 354.398438 340.644531 372.082031 320.945312 395 317.644531 Z M 459.289062 594.601562 L 344.25 594.601562 C 340.519531 594.601562 337.484375 591.574219 337.484375 587.367188 C 337.484375 583.632812 340.519531 580.605469 344.25 580.605469 L 459.289062 580.605469 C 463.015625 580.605469 466.054688 583.632812 466.054688 587.839844 C 466.054688 591.574219 463.015625 594.601562 459.289062 594.601562 Z M 457.554688 554.027344 C 460.808594 554.027344 464.320312 555.847656 464.320312 560.316406 C 464.320312 564.050781 461.285156 567.078125 457.554688 567.078125 L 345.980469 567.078125 C 342.253906 567.078125 339.214844 564.050781 339.214844 559.84375 C 339.214844 555.847656 342.726562 554.035156 345.980469 554.035156 L 457.554688 554.035156 Z M 455.902344 459.117188 C 459.632812 459.117188 462.671875 462.144531 462.671875 465.878906 C 462.671875 469.609375 459.632812 472.640625 455.902344 472.640625 C 452.175781 472.640625 449.136719 469.609375 449.136719 465.878906 C 449.136719 462.144531 452.175781 459.117188 455.902344 459.117188 Z M 442.371094 256.242188 C 446.097656 256.242188 449.136719 259.269531 449.136719 263.003906 C 449.136719 266.734375 446.097656 269.765625 442.371094 269.765625 C 438.640625 269.765625 435.601562 266.734375 435.601562 263.003906 C 435.601562 259.269531 438.640625 256.242188 442.371094 256.242188 Z M 455.902344 398.253906 L 408.535156 398.253906 L 408.535156 330.628906 L 455.902344 330.628906 Z M 530.339844 391.492188 C 526.609375 391.492188 523.574219 388.460938 523.574219 384.726562 C 523.574219 380.996094 526.609375 377.964844 530.339844 377.964844 C 534.066406 377.964844 537.105469 380.996094 537.105469 384.726562 C 537.105469 388.460938 534.066406 391.492188 530.339844 391.492188 Z M 530.339844 391.492188 " fill-opacity="1" fill-rule="nonzero"/></g><path fill="rgb(0.779724%, 0.779724%, 0.779724%)" d="M 460.707031 524.703125 L 473.289062 529.683594 C 474.734375 526.023438 476.5625 522.214844 478.878906 518.03125 L 467.027344 511.492188 C 464.4375 516.183594 462.371094 520.511719 460.707031 524.703125 Z M 460.707031 524.703125 " fill-opacity="1" fill-rule="nonzero"/><path fill="rgb(0.779724%, 0.779724%, 0.779724%)" d="M 493.359375 495.402344 L 482.246094 487.671875 C 479.585938 491.488281 476.933594 495.375 474.398438 499.296875 L 485.757812 506.640625 C 488.214844 502.855469 490.785156 499.101562 493.359375 495.402344 Z M 493.359375 495.402344 " fill-opacity="1" fill-rule="nonzero"/><path fill="rgb(0.779724%, 0.779724%, 0.779724%)" d="M 509.097656 472.375 L 497.648438 465.179688 C 495.367188 468.800781 492.824219 472.546875 490.15625 476.386719 L 501.277344 484.101562 C 504.058594 480.085938 506.714844 476.164062 509.097656 472.375 Z M 509.097656 472.375 " fill-opacity="1" fill-rule="nonzero"/><path fill="rgb(0.779724%, 0.779724%, 0.779724%)" d="M 522.558594 447.429688 L 510.34375 441.605469 C 508.402344 445.664062 506.378906 449.675781 504.261719 453.632812 L 516.195312 460.007812 C 518.410156 455.875 520.527344 451.667969 522.558594 447.429688 Z M 522.558594 447.429688 " fill-opacity="1" fill-rule="nonzero"/><path fill="rgb(0.779724%, 0.779724%, 0.779724%)" d="M 533.582031 421.542969 L 520.914062 416.789062 C 519.34375 420.96875 517.664062 425.152344 515.890625 429.3125 L 528.351562 434.609375 C 530.199219 430.265625 531.945312 425.910156 533.582031 421.542969 Z M 533.582031 421.542969 " fill-opacity="1" fill-rule="nonzero"/><path fill="rgb(0.779724%, 0.779724%, 0.779724%)" d="M 550.070312 352.917969 C 550.449219 348.421875 550.640625 344.03125 550.640625 339.878906 L 550.632812 338.53125 L 537.101562 338.640625 L 537.105469 339.878906 C 537.105469 343.652344 536.929688 347.65625 536.578125 351.78125 Z M 550.070312 352.917969 " fill-opacity="1" fill-rule="nonzero"/><path fill="rgb(0.779724%, 0.779724%, 0.779724%)" d="M 534.007812 312.820312 C 534.996094 317.023438 535.746094 321.335938 536.261719 325.644531 L 549.699219 324.046875 C 549.132812 319.246094 548.277344 314.4375 547.183594 309.75 Z M 534.007812 312.820312 " fill-opacity="1" fill-rule="nonzero"/><path fill="rgb(0.779724%, 0.779724%, 0.779724%)" d="M 525.292969 288.335938 C 527.191406 292.242188 528.890625 296.28125 530.339844 300.339844 L 543.089844 295.808594 C 541.476562 291.269531 539.578125 286.765625 537.457031 282.417969 Z M 525.292969 288.335938 " fill-opacity="1" fill-rule="nonzero"/><path fill="rgb(0.779724%, 0.779724%, 0.779724%)" d="M 511.378906 266.34375 C 514.09375 269.757812 516.636719 273.335938 518.945312 276.972656 L 530.378906 269.75 C 527.816406 265.695312 524.988281 261.71875 521.976562 257.929688 Z M 511.378906 266.34375 " fill-opacity="1" fill-rule="nonzero"/><path fill="rgb(0.779724%, 0.779724%, 0.779724%)" d="M 493.074219 247.710938 C 496.425781 250.480469 499.671875 253.460938 502.71875 256.558594 L 512.367188 247.078125 C 508.988281 243.648438 505.402344 240.363281 501.695312 237.296875 Z M 493.074219 247.710938 " fill-opacity="1" fill-rule="nonzero"/><path fill="rgb(0.779724%, 0.779724%, 0.779724%)" d="M 490.117188 228.636719 C 486.164062 225.976562 482.003906 223.46875 477.753906 221.171875 L 471.320312 233.070312 C 475.183594 235.160156 478.964844 237.441406 482.566406 239.863281 Z M 490.117188 228.636719 " fill-opacity="1" fill-rule="nonzero"/><path fill="rgb(0.779724%, 0.779724%, 0.779724%)" d="M 464.761719 214.957031 C 460.402344 213.101562 455.847656 211.425781 451.234375 209.957031 L 447.140625 222.847656 C 451.355469 224.179688 455.503906 225.714844 459.46875 227.398438 Z M 464.761719 214.957031 " fill-opacity="1" fill-rule="nonzero"/><path fill="rgb(0.779724%, 0.779724%, 0.779724%)" d="M 437.335938 206.226562 C 432.691406 205.203125 427.921875 204.371094 423.160156 203.75 L 421.425781 217.167969 C 425.789062 217.726562 430.164062 218.484375 434.40625 219.433594 Z M 437.335938 206.226562 " fill-opacity="1" fill-rule="nonzero"/><path fill="rgb(0.779724%, 0.779724%, 0.779724%)" d="M 212.296875 567.316406 L 225.828125 567.316406 L 225.828125 580.839844 L 212.296875 580.839844 Z M 212.296875 567.316406 " fill-opacity="1" fill-rule="nonzero"/><g clip-path="url(#clip-1)"><path fill="rgb(0.779724%, 0.779724%, 0.779724%)" d="M 212.296875 594.367188 L 225.828125 594.367188 L 225.828125 607.890625 L 212.296875 607.890625 Z M 212.296875 594.367188 " fill-opacity="1" fill-rule="nonzero"/></g><path fill="rgb(0.779724%, 0.779724%, 0.779724%)" d="M 225.828125 580.839844 L 239.363281 580.839844 L 239.363281 594.367188 L 225.828125 594.367188 Z M 225.828125 580.839844 " fill-opacity="1" fill-rule="nonzero"/><g clip-path="url(#clip-2)"><path fill="rgb(0.779724%, 0.779724%, 0.779724%)" d="M 198.761719 580.839844 L 212.296875 580.839844 L 212.296875 594.367188 L 198.761719 594.367188 Z M 198.761719 580.839844 " fill-opacity="1" fill-rule="nonzero"/></g><g clip-path="url(#clip-3)"><path fill="rgb(0.779724%, 0.779724%, 0.779724%)" d="M 584.476562 202.140625 L 598.007812 202.140625 L 598.007812 215.664062 L 584.476562 215.664062 Z M 584.476562 202.140625 " fill-opacity="1" fill-rule="nonzero"/></g><path fill="rgb(0.779724%, 0.779724%, 0.779724%)" d="M 584.476562 229.191406 L 598.007812 229.191406 L 598.007812 242.714844 L 584.476562 242.714844 Z M 584.476562 229.191406 " fill-opacity="1" fill-rule="nonzero"/><g clip-path="url(#clip-4)"><path fill="rgb(0.779724%, 0.779724%, 0.779724%)" d="M 598.007812 215.664062 L 611.542969 215.664062 L 611.542969 229.191406 L 598.007812 229.191406 Z M 598.007812 215.664062 " fill-opacity="1" fill-rule="nonzero"/></g><path fill="rgb(0.779724%, 0.779724%, 0.779724%)" d="M 570.941406 215.664062 L 584.476562 215.664062 L 584.476562 229.191406 L 570.941406 229.191406 Z M 570.941406 215.664062 " fill-opacity="1" fill-rule="nonzero"/></svg>