<?xml version="1.0" encoding="UTF-8"?><svg xmlns="http://www.w3.org/2000/svg" xmlns:xlink="http://www.w3.org/1999/xlink" width="810" zoomAndPan="magnify" viewBox="0 0 810 809.999993" height="809.999993" preserveAspectRatio="xMidYMid meet" version="1.0"><defs><clipPath id="clip-0"><path d="M 207 428 L 319 428 L 319 557.128906 L 207 557.128906 Z M 207 428 " clip-rule="nonzero"/></clipPath></defs><path fill="rgb(0%, 0%, 0%)" d="M 511.992188 470.128906 C 500.652344 474.417969 485.027344 468.902344 481.347656 459.101562 C 480.125 456.039062 476.445312 454.503906 473.382812 455.730469 C 470.316406 456.957031 468.785156 460.632812 470.011719 463.695312 C 473.996094 473.804688 484.414062 481.15625 495.75 483.300781 L 495.75 490.039062 C 495.75 493.410156 498.507812 496.167969 501.878906 496.167969 C 505.25 496.167969 508.007812 493.410156 508.007812 490.039062 L 508.007812 483.609375 C 510.765625 483.300781 513.523438 482.6875 516.28125 481.464844 C 528.539062 476.867188 534.667969 466.148438 530.683594 455.730469 C 526.394531 443.785156 514.441406 441.027344 504.023438 438.269531 C 496.671875 436.433594 489.621094 434.59375 486.558594 430 C 484.414062 426.628906 484.105469 422.953125 486.25 419.890625 C 490.234375 414.375 499.734375 413.457031 507.699219 414.683594 C 514.441406 415.90625 520.878906 420.808594 522.410156 425.710938 C 523.328125 429.078125 527.003906 430.613281 530.070312 429.691406 C 533.441406 428.773438 534.972656 425.097656 534.054688 422.035156 C 530.988281 412.539062 520.878906 404.574219 509.847656 402.429688 C 509.234375 402.429688 508.621094 402.121094 508.3125 402.121094 L 508.3125 393.851562 C 508.3125 390.480469 505.554688 387.722656 502.1875 387.722656 C 498.816406 387.722656 496.058594 390.480469 496.058594 393.851562 L 496.058594 402.121094 C 488.703125 403.042969 481.347656 406.105469 476.753906 412.539062 C 471.542969 419.582031 471.542969 429.078125 476.753906 436.738281 C 482.574219 445.007812 492.6875 447.765625 501.878906 449.910156 C 511.683594 452.363281 518.121094 454.199219 519.957031 459.714844 C 521.183594 464.921875 515.363281 468.902344 511.992188 470.128906 Z M 511.992188 470.128906 " fill-opacity="1" fill-rule="nonzero"/><path fill="rgb(0%, 0%, 0%)" d="M 275.742188 475.335938 C 280.03125 475.949219 283.707031 479.320312 284.628906 481.769531 C 285.546875 485.140625 289.222656 486.671875 292.289062 485.753906 C 295.660156 484.832031 297.191406 481.15625 296.269531 478.09375 C 293.820312 470.742188 286.464844 464.921875 278.191406 463.390625 L 278.191406 459.101562 C 278.191406 455.730469 275.433594 452.972656 272.0625 452.972656 C 268.691406 452.972656 265.9375 455.730469 265.9375 459.101562 L 265.9375 463.390625 C 260.726562 464.308594 256.128906 466.757812 252.757812 471.046875 C 248.46875 476.5625 248.46875 484.21875 252.757812 490.039062 C 257.050781 496.472656 264.710938 498.3125 271.449219 500.148438 C 277.886719 501.683594 281.871094 502.90625 282.789062 505.664062 C 283.707031 508.113281 280.03125 509.953125 278.804688 510.566406 C 271.757812 513.324219 261.953125 509.953125 259.5 503.828125 C 258.273438 500.761719 254.597656 499.230469 251.535156 500.457031 C 248.46875 501.683594 246.9375 505.359375 248.164062 508.421875 C 250.921875 515.773438 257.96875 520.980469 266.242188 522.820312 L 266.242188 526.1875 C 266.242188 529.558594 269 532.316406 272.371094 532.316406 C 275.742188 532.316406 278.5 529.558594 278.5 526.1875 L 278.5 523.433594 C 280.03125 523.125 281.5625 522.820312 283.09375 522.207031 C 292.59375 518.53125 297.191406 509.953125 294.433594 501.683594 C 291.0625 492.492188 281.871094 490.039062 274.515625 488.203125 C 269.613281 486.976562 265.015625 485.753906 263.179688 482.996094 C 257.664062 475.949219 271.757812 474.722656 275.742188 475.335938 Z M 275.742188 475.335938 " fill-opacity="1" fill-rule="nonzero"/><path fill="rgb(0%, 0%, 0%)" d="M 414.855469 474.417969 C 415.164062 474.417969 415.773438 474.722656 416.082031 474.722656 C 416.082031 474.417969 416.082031 474.417969 416.082031 474.113281 C 415.773438 474.113281 415.46875 474.417969 414.855469 474.417969 Z M 414.855469 474.417969 " fill-opacity="1" fill-rule="nonzero"/><path fill="rgb(0%, 0%, 0%)" d="M 564.695312 370.261719 C 559.792969 362.910156 554.582031 356.171875 549.375 349.738281 C 543.550781 342.078125 537.730469 335.035156 532.828125 326.761719 C 534.359375 317.265625 537.730469 297.046875 541.40625 288.46875 C 543.859375 283.261719 547.535156 278.972656 547.535156 272.847656 C 547.535156 266.414062 542.941406 261.207031 536.8125 259.675781 C 532.519531 258.753906 527.925781 259.980469 523.023438 263.042969 C 519.039062 265.496094 513.214844 271.316406 509.847656 265.1875 C 508.621094 263.042969 506.78125 259.980469 504.023438 258.449219 C 495.136719 252.628906 488.703125 262.125 486.25 265.496094 C 485.027344 267.027344 482.574219 271.007812 480.429688 269.785156 C 476.445312 267.640625 473.996094 263.964844 469.703125 262.433594 C 462.65625 259.675781 454.996094 264.578125 453.464844 271.621094 C 452.238281 277.75 455.917969 283.261719 458.980469 288.164062 C 458.980469 288.164062 465.722656 299.191406 470.316406 326.457031 C 465.414062 334.113281 459.59375 341.773438 454.078125 349.433594 C 445.191406 361.378906 436.613281 373.632812 429.257812 386.804688 C 433.242188 388.335938 436.917969 390.480469 440.289062 392.320312 C 447.644531 380.066406 455.609375 368.117188 464.1875 356.785156 C 469.398438 349.433594 474.914062 342.078125 479.816406 334.421875 L 523.636719 334.421875 C 532.828125 349.433594 545.085938 361.992188 554.890625 376.695312 C 573.273438 404.878906 590.128906 436.738281 587.984375 475.949219 C 585.53125 520.0625 549.679688 541.8125 515.667969 543.957031 C 496.363281 545.183594 476.445312 544.570312 458.675781 536.296875 C 456.835938 539.972656 454.382812 543.34375 451.625 546.40625 C 463.269531 552.226562 476.140625 555.289062 488.398438 556.210938 C 497.589844 556.824219 507.089844 556.824219 516.28125 556.210938 C 554.582031 553.757812 597.175781 527.71875 600.238281 476.5625 C 602.078125 433.980469 584.304688 400.285156 564.695312 370.261719 Z M 530.070312 283.875 C 526.085938 293.371094 522.410156 312.976562 520.878906 322.167969 L 481.347656 322.167969 C 478.898438 307.769531 475.832031 292.148438 467.558594 279.894531 C 466.335938 278.054688 464.800781 275.605469 464.800781 274.074219 C 465.722656 274.683594 466.945312 275.605469 468.171875 276.523438 C 476.140625 283.570312 485.332031 284.488281 492.992188 275.910156 C 493.300781 275.605469 497.894531 270.089844 497.589844 269.785156 C 500.652344 274.683594 504.023438 279.28125 509.847656 280.503906 C 515.972656 281.730469 521.183594 278.972656 526.394531 275.296875 C 527.3125 274.683594 534.972656 269.171875 534.972656 273.152344 C 535.277344 277.136719 531.601562 280.8125 530.070312 283.875 Z M 530.070312 283.875 " fill-opacity="1" fill-rule="nonzero"/><path fill="rgb(0%, 0%, 0%)" d="M 434.160156 528.640625 C 427.417969 537.21875 410.566406 544.875 388.503906 544.875 C 366.441406 544.875 349.589844 537.21875 342.847656 528.640625 C 337.023438 525.578125 331.816406 521.898438 327.527344 517.613281 C 327.527344 518.53125 327.21875 519.449219 327.21875 520.0625 C 327.21875 540.585938 354.183594 556.824219 388.503906 556.824219 C 422.824219 556.824219 449.789062 540.585938 449.789062 520.0625 C 449.789062 519.144531 449.789062 518.222656 449.480469 517.613281 C 445.496094 521.898438 440.289062 525.578125 434.160156 528.640625 Z M 434.160156 528.640625 " fill-opacity="1" fill-rule="nonzero"/><path fill="rgb(0%, 0%, 0%)" d="M 434.160156 498.003906 C 427.417969 506.890625 410.566406 514.242188 388.503906 514.242188 C 366.441406 514.242188 349.589844 506.582031 342.847656 498.003906 C 337.023438 494.941406 331.816406 491.265625 327.527344 486.976562 C 327.527344 487.898438 327.21875 488.816406 327.21875 489.429688 C 327.21875 509.953125 354.183594 526.1875 388.503906 526.1875 C 422.824219 526.1875 449.789062 509.953125 449.789062 489.429688 C 449.789062 488.507812 449.789062 487.589844 449.480469 486.976562 C 445.496094 491.265625 440.289062 494.941406 434.160156 498.003906 Z M 434.160156 498.003906 " fill-opacity="1" fill-rule="nonzero"/><g clip-path="url(#clip-0)"><path fill="rgb(0%, 0%, 0%)" d="M 272.0625 544.875 C 243.261719 544.875 219.972656 521.59375 219.972656 492.796875 C 219.972656 464.003906 243.261719 440.71875 272.0625 440.71875 C 290.144531 440.71875 305.769531 449.910156 315.269531 463.695312 C 314.960938 462.164062 314.960938 460.632812 314.960938 459.101562 C 314.960938 454.8125 315.574219 450.828125 317.109375 446.847656 C 305.464844 435.511719 289.53125 428.46875 272.0625 428.46875 C 236.519531 428.46875 207.714844 457.261719 207.714844 492.796875 C 207.714844 528.332031 236.519531 557.128906 272.0625 557.128906 C 290.449219 557.128906 306.996094 549.164062 318.945312 536.910156 C 316.800781 532.316406 315.269531 527.414062 314.960938 522.207031 C 305.769531 535.992188 289.835938 544.875 272.0625 544.875 Z M 272.0625 544.875 " fill-opacity="1" fill-rule="nonzero"/></g><path fill="rgb(0%, 0%, 0%)" d="M 434.160156 467.371094 C 427.417969 476.253906 410.566406 483.609375 388.503906 483.609375 C 366.441406 483.609375 349.589844 475.949219 342.847656 467.371094 C 337.023438 464.308594 331.816406 460.632812 327.527344 456.34375 C 327.527344 457.261719 327.21875 458.183594 327.21875 458.792969 C 327.21875 479.320312 354.183594 495.554688 388.503906 495.554688 C 422.824219 495.554688 449.789062 479.320312 449.789062 458.792969 C 449.789062 457.875 449.789062 456.957031 449.480469 456.34375 C 445.496094 460.632812 440.289062 464.308594 434.160156 467.371094 Z M 434.160156 467.371094 " fill-opacity="1" fill-rule="nonzero"/><path fill="rgb(0%, 0%, 0%)" d="M 388.503906 391.707031 C 354.183594 391.707031 327.21875 407.941406 327.21875 428.46875 C 327.21875 448.992188 354.183594 465.226562 388.503906 465.226562 C 422.824219 465.226562 449.789062 448.992188 449.789062 428.46875 C 449.789062 407.941406 422.824219 391.707031 388.503906 391.707031 Z M 388.503906 452.972656 C 359.699219 452.972656 339.476562 440.109375 339.476562 428.46875 C 339.476562 416.828125 359.699219 403.960938 388.503906 403.960938 C 417.308594 403.960938 437.53125 416.828125 437.53125 428.46875 C 437.53125 440.109375 417.308594 452.972656 388.503906 452.972656 Z M 388.503906 452.972656 " fill-opacity="1" fill-rule="nonzero"/></svg>