<?xml version="1.0" encoding="UTF-8"?><svg xmlns="http://www.w3.org/2000/svg" xmlns:xlink="http://www.w3.org/1999/xlink" width="810" zoomAndPan="magnify" viewBox="0 0 810 809.999993" height="809.999993" preserveAspectRatio="xMidYMid meet" version="1.0"><defs><clipPath id="clip-0"><path d="M 219.5625 473 L 393 473 L 393 590.8125 L 219.5625 590.8125 Z M 219.5625 473 " clip-rule="nonzero"/></clipPath><clipPath id="clip-1"><path d="M 417 473 L 590.8125 473 L 590.8125 590.8125 L 417 590.8125 Z M 417 473 " clip-rule="nonzero"/></clipPath><clipPath id="clip-2"><path d="M 219.5625 448 L 233 448 L 233 462 L 219.5625 462 Z M 219.5625 448 " clip-rule="nonzero"/></clipPath><clipPath id="clip-3"><path d="M 448 578 L 461 578 L 461 590.8125 L 448 590.8125 Z M 448 578 " clip-rule="nonzero"/></clipPath><clipPath id="clip-4"><path d="M 578 436 L 590.8125 436 L 590.8125 449 L 578 449 Z M 578 436 " clip-rule="nonzero"/></clipPath></defs><path fill="rgb(6.269836%, 5.879211%, 5.099487%)" d="M 405.1875 319.015625 C 418.820312 319.015625 429.894531 330.089844 429.894531 343.722656 C 429.894531 357.359375 418.820312 368.433594 405.1875 368.433594 C 391.554688 368.433594 380.480469 357.359375 380.480469 343.722656 C 380.480469 330.089844 391.554688 319.015625 405.1875 319.015625 Z M 405.1875 380.789062 C 425.625 380.789062 442.25 364.164062 442.25 343.722656 C 442.25 323.285156 425.625 306.660156 405.1875 306.660156 C 384.75 306.660156 368.125 323.285156 368.125 343.722656 C 368.125 364.164062 384.75 380.789062 405.1875 380.789062 " fill-opacity="1" fill-rule="nonzero"/><path fill="rgb(6.269836%, 5.879211%, 5.099487%)" d="M 328.480469 447.335938 C 329.878906 430.589844 337.40625 415.21875 349.472656 404.023438 L 365.832031 454.914062 L 360.304688 454.914062 C 351.136719 454.914062 343.246094 461.742188 341.96875 470.816406 L 339.289062 489.5625 C 331.109375 477.1875 327.222656 462.371094 328.480469 447.335938 Z M 362.453125 288.128906 L 447.921875 288.128906 C 461.53125 318.675781 464.0625 353.835938 453.253906 387.421875 L 451.902344 391.644531 L 431.5625 454.914062 L 378.8125 454.914062 L 358.472656 391.644531 L 357.121094 387.421875 C 346.3125 353.835938 348.84375 318.675781 362.453125 288.128906 Z M 405.1875 234.03125 C 420.390625 245.636719 432.648438 259.898438 441.695312 275.773438 L 368.679688 275.773438 C 377.726562 259.898438 389.984375 245.636719 405.1875 234.03125 Z M 481.894531 447.335938 C 483.152344 462.371094 479.265625 477.1875 471.085938 489.5625 L 468.40625 470.839844 C 467.128906 461.742188 459.238281 454.914062 450.070312 454.914062 L 444.542969 454.914062 L 460.902344 404.023438 C 472.96875 415.21875 480.496094 430.589844 481.894531 447.335938 Z M 422.367188 485.800781 L 388.007812 485.800781 L 391.722656 467.269531 L 418.652344 467.269531 Z M 343.414062 510.507812 C 344.066406 510.507812 344.71875 510.414062 345.371094 510.195312 C 347.589844 509.445312 349.207031 507.515625 349.519531 505.199219 L 354.203125 472.578125 C 354.636719 469.535156 357.242188 467.269531 360.304688 467.269531 L 379.128906 467.269531 L 374.421875 490.769531 C 374.058594 492.582031 374.519531 494.460938 375.699219 495.886719 C 376.882812 497.335938 378.621094 498.15625 380.480469 498.15625 L 429.894531 498.15625 C 431.753906 498.15625 433.492188 497.335938 434.675781 495.886719 C 435.855469 494.460938 436.316406 492.582031 435.953125 490.769531 L 431.246094 467.269531 L 450.070312 467.269531 C 453.132812 467.269531 455.738281 469.535156 456.171875 472.578125 L 460.855469 505.199219 C 461.167969 507.515625 462.785156 509.445312 465.003906 510.195312 C 465.65625 510.414062 466.308594 510.507812 466.960938 510.507812 C 468.578125 510.507812 470.144531 509.882812 471.328125 508.699219 C 487.808594 492.21875 496.132812 469.488281 494.203125 446.300781 C 492.367188 424.582031 481.75 404.867188 464.980469 391.378906 L 465.027344 391.1875 C 485.296875 328.113281 462.6875 259.847656 408.78125 221.339844 C 406.636719 219.792969 403.738281 219.792969 401.59375 221.339844 C 347.6875 259.847656 325.078125 328.113281 345.347656 391.1875 L 345.394531 391.378906 C 328.625 404.867188 318.007812 424.582031 316.171875 446.300781 C 314.242188 469.488281 322.566406 492.21875 339.046875 508.699219 C 340.230469 509.882812 341.796875 510.507812 343.414062 510.507812 " fill-opacity="1" fill-rule="nonzero"/><g clip-path="url(#clip-0)"><path fill="rgb(6.269836%, 5.879211%, 5.099487%)" d="M 269.289062 590.8125 L 281.644531 590.8125 C 281.644531 576.574219 276.769531 563.496094 268.636719 553.050781 C 272.328125 546.992188 277.613281 542.046875 284.03125 538.933594 C 284.082031 538.910156 284.152344 538.910156 284.226562 538.886719 C 289.292969 536.449219 294.648438 535.21875 300.175781 535.21875 C 312.144531 535.21875 323.363281 541.152344 330.289062 550.855469 C 326.886719 557.222656 324.882812 564.777344 324.882812 572.28125 L 337.238281 572.28125 C 337.238281 565.957031 339.167969 559.273438 342.378906 554.425781 L 342.355469 554.402344 C 342.425781 554.304688 342.546875 554.207031 342.644531 554.085938 C 348.410156 545.640625 357.941406 540.621094 368.125 540.621094 C 372.394531 540.621094 376.59375 541.539062 380.480469 543.230469 L 380.480469 559.417969 L 392.832031 559.417969 L 392.832031 510.003906 L 380.480469 510.003906 L 380.480469 530.125 C 376.472656 528.945312 372.324219 528.269531 368.125 528.269531 C 356.757812 528.269531 345.972656 532.730469 337.984375 540.527344 C 328.671875 529.476562 314.820312 522.863281 300.175781 522.863281 C 295.636719 522.863281 291.199219 523.492188 286.878906 524.695312 C 281.910156 495.355469 256.644531 473.445312 226.046875 473.445312 L 219.871094 473.445312 L 219.871094 485.800781 L 226.046875 485.800781 C 251.578125 485.800781 272.425781 504.910156 275.082031 529.910156 C 269.097656 533.480469 263.8125 538.113281 259.804688 543.785156 C 249.019531 534.613281 235.097656 529.039062 219.871094 529.039062 L 219.871094 541.394531 C 247.113281 541.394531 269.289062 563.570312 269.289062 590.8125 " fill-opacity="1" fill-rule="nonzero"/></g><g clip-path="url(#clip-1)"><path fill="rgb(6.269836%, 5.879211%, 5.099487%)" d="M 523.496094 524.695312 C 519.175781 523.492188 514.734375 522.863281 510.199219 522.863281 C 495.554688 522.863281 481.703125 529.476562 472.390625 540.527344 C 464.402344 532.730469 453.617188 528.269531 442.25 528.269531 C 438.050781 528.269531 433.902344 528.945312 429.894531 530.125 L 429.894531 510.003906 L 417.542969 510.003906 L 417.542969 559.417969 L 429.894531 559.417969 L 429.894531 543.230469 C 433.78125 541.539062 437.980469 540.621094 442.25 540.621094 C 452.433594 540.621094 461.964844 545.640625 467.730469 554.085938 C 467.828125 554.207031 467.949219 554.304688 468.019531 554.402344 L 467.996094 554.425781 C 471.207031 559.273438 473.136719 565.957031 473.136719 572.28125 L 485.492188 572.28125 C 485.492188 564.777344 483.488281 557.222656 480.085938 550.855469 C 487.011719 541.152344 498.230469 535.21875 510.199219 535.21875 C 515.726562 535.21875 521.082031 536.449219 526.148438 538.886719 C 526.222656 538.910156 526.292969 538.910156 526.34375 538.933594 C 532.761719 542.046875 538.046875 546.992188 541.738281 553.050781 C 533.605469 563.496094 528.730469 576.574219 528.730469 590.8125 L 541.085938 590.8125 C 541.085938 563.570312 563.261719 541.394531 590.503906 541.394531 L 590.503906 529.039062 C 575.277344 529.039062 561.355469 534.613281 550.570312 543.785156 C 546.5625 538.113281 541.277344 533.480469 535.292969 529.910156 C 537.949219 504.910156 558.796875 485.800781 584.328125 485.800781 L 590.503906 485.800781 L 590.503906 473.445312 L 584.328125 473.445312 C 553.730469 473.445312 528.464844 495.355469 523.496094 524.695312 " fill-opacity="1" fill-rule="nonzero"/></g><path fill="rgb(6.269836%, 5.879211%, 5.099487%)" d="M 374.300781 411.671875 L 386.65625 411.671875 L 386.65625 399.320312 L 374.300781 399.320312 L 374.300781 411.671875 " fill-opacity="1" fill-rule="nonzero"/><path fill="rgb(6.269836%, 5.879211%, 5.099487%)" d="M 399.011719 411.671875 L 411.363281 411.671875 L 411.363281 399.320312 L 399.011719 399.320312 L 399.011719 411.671875 " fill-opacity="1" fill-rule="nonzero"/><path fill="rgb(6.269836%, 5.879211%, 5.099487%)" d="M 423.71875 411.671875 L 436.074219 411.671875 L 436.074219 399.320312 L 423.71875 399.320312 L 423.71875 411.671875 " fill-opacity="1" fill-rule="nonzero"/><path fill="rgb(6.269836%, 5.879211%, 5.099487%)" d="M 300.175781 559.925781 L 300.175781 547.570312 L 287.820312 547.570312 L 287.820312 559.925781 L 300.175781 559.925781 " fill-opacity="1" fill-rule="nonzero"/><g clip-path="url(#clip-2)"><path fill="rgb(6.269836%, 5.879211%, 5.099487%)" d="M 232.226562 448.738281 L 219.871094 448.738281 L 219.871094 461.089844 L 232.226562 461.089844 L 232.226562 448.738281 " fill-opacity="1" fill-rule="nonzero"/></g><path fill="rgb(6.269836%, 5.879211%, 5.099487%)" d="M 578.148438 516.6875 L 578.148438 504.332031 L 565.792969 504.332031 L 565.792969 516.6875 L 578.148438 516.6875 " fill-opacity="1" fill-rule="nonzero"/><path fill="rgb(6.269836%, 5.879211%, 5.099487%)" d="M 528.730469 479.621094 L 516.378906 479.621094 L 516.378906 491.976562 L 528.730469 491.976562 L 528.730469 479.621094 " fill-opacity="1" fill-rule="nonzero"/><g clip-path="url(#clip-3)"><path fill="rgb(6.269836%, 5.879211%, 5.099487%)" d="M 448.429688 578.457031 L 448.429688 590.8125 L 460.78125 590.8125 L 460.78125 578.457031 L 448.429688 578.457031 " fill-opacity="1" fill-rule="nonzero"/></g><g clip-path="url(#clip-4)"><path fill="rgb(6.269836%, 5.879211%, 5.099487%)" d="M 578.148438 448.738281 L 590.503906 448.738281 L 590.503906 436.382812 L 578.148438 436.382812 L 578.148438 448.738281 " fill-opacity="1" fill-rule="nonzero"/></g></svg>