<?xml version="1.0" encoding="UTF-8"?><svg xmlns="http://www.w3.org/2000/svg" xmlns:xlink="http://www.w3.org/1999/xlink" width="810" zoomAndPan="magnify" viewBox="0 0 810 809.999993" height="809.999993" preserveAspectRatio="xMidYMid meet" version="1.0"><path fill="rgb(0%, 0%, 0%)" d="M 370.742188 559.160156 L 450.675781 559.160156 L 450.675781 547.742188 L 370.742188 547.742188 L 370.742188 559.160156 " fill-opacity="1" fill-rule="nonzero"/><path fill="rgb(0%, 0%, 0%)" d="M 558.402344 414.167969 L 557.53125 417.667969 C 556.304688 422.441406 554.410156 427.015625 551.890625 431.230469 L 550.0625 434.308594 L 556.953125 444.65625 L 547.429688 454.179688 L 537.082031 447.289062 L 534.003906 449.140625 C 529.789062 451.636719 525.214844 453.53125 520.441406 454.738281 L 516.941406 455.628906 L 514.511719 467.808594 L 501.039062 467.808594 L 498.609375 455.628906 L 495.105469 454.738281 C 490.332031 453.53125 485.761719 451.636719 481.546875 449.140625 L 478.46875 447.289062 L 468.117188 454.179688 L 458.59375 444.65625 L 465.488281 434.308594 L 463.65625 431.230469 C 461.136719 427.015625 459.242188 422.441406 458.015625 417.667969 L 457.144531 414.167969 L 444.96875 411.734375 L 444.96875 398.265625 L 457.144531 395.832031 L 458.015625 392.332031 C 459.242188 387.558594 461.136719 382.988281 463.65625 378.769531 L 465.488281 375.695312 L 458.59375 365.34375 L 468.117188 355.820312 L 478.46875 362.714844 L 481.546875 360.863281 C 485.761719 358.363281 490.332031 356.46875 495.105469 355.261719 L 498.609375 354.371094 L 501.039062 342.195312 L 514.511719 342.195312 L 516.941406 354.371094 L 520.441406 355.261719 C 525.214844 356.46875 529.789062 358.363281 534.003906 360.863281 L 537.082031 362.714844 L 547.429688 355.820312 L 556.953125 365.34375 L 550.0625 375.695312 L 551.890625 378.769531 C 554.410156 382.988281 556.304688 387.558594 557.53125 392.332031 L 558.402344 395.832031 L 570.582031 398.265625 L 570.582031 411.734375 Z M 502.066406 524.902344 L 490.644531 524.902344 L 490.644531 474.074219 L 491.671875 479.226562 L 502.066406 479.226562 Z M 484.933594 570.582031 L 336.484375 570.582031 C 327.027344 570.582031 319.355469 562.910156 319.355469 553.453125 L 319.355469 536.324219 L 502.066406 536.324219 L 502.066406 553.453125 C 502.066406 562.910156 494.390625 570.582031 484.933594 570.582031 Z M 330.773438 433.546875 L 330.773438 524.902344 L 319.355469 524.902344 L 319.355469 433.546875 Z M 239.417969 416.417969 L 239.417969 313.644531 C 239.417969 310.5 241.984375 307.9375 245.128906 307.9375 L 370.742188 307.9375 C 373.886719 307.9375 376.453125 310.5 376.453125 313.644531 L 376.453125 435.535156 L 350.871094 422.128906 L 245.128906 422.128906 C 241.984375 422.128906 239.417969 419.5625 239.417969 416.417969 Z M 319.355469 285.097656 L 330.773438 285.097656 L 330.773438 296.515625 L 319.355469 296.515625 Z M 336.484375 239.417969 L 484.933594 239.417969 C 494.390625 239.417969 502.066406 247.09375 502.066406 256.546875 L 502.066406 273.675781 L 319.355469 273.675781 L 319.355469 256.546875 C 319.355469 247.09375 327.027344 239.417969 336.484375 239.417969 Z M 452.058594 376.140625 C 450.410156 379.285156 449.050781 382.609375 447.957031 386.019531 L 433.546875 388.898438 L 433.546875 421.101562 L 447.957031 423.980469 C 449.050781 427.394531 450.410156 430.714844 452.058594 433.859375 L 443.898438 446.105469 L 466.667969 468.878906 L 478.914062 460.714844 C 479.003906 460.78125 479.113281 460.824219 479.226562 460.871094 L 479.226562 524.902344 L 342.195312 524.902344 L 342.195312 433.546875 L 348.058594 433.546875 L 387.871094 454.402344 L 387.871094 433.546875 L 422.128906 433.546875 L 422.128906 422.128906 L 387.871094 422.128906 L 387.871094 410.710938 L 422.128906 410.710938 L 422.128906 399.289062 L 387.871094 399.289062 L 387.871094 387.871094 L 422.128906 387.871094 L 422.128906 376.453125 L 387.871094 376.453125 L 387.871094 365.03125 L 422.128906 365.03125 L 422.128906 353.613281 L 387.871094 353.613281 L 387.871094 342.195312 L 450.675781 342.195312 L 450.675781 330.773438 L 387.871094 330.773438 L 387.871094 319.355469 L 467.804688 319.355469 L 467.804688 307.9375 L 386.824219 307.9375 C 384.457031 301.3125 378.167969 296.515625 370.742188 296.515625 L 342.195312 296.515625 L 342.195312 285.097656 L 479.226562 285.097656 L 479.226562 349.128906 C 479.113281 349.175781 479.003906 349.21875 478.914062 349.285156 L 466.667969 341.125 L 443.898438 363.894531 Z M 491.671875 330.773438 L 490.644531 335.925781 L 490.644531 285.097656 L 502.066406 285.097656 L 502.066406 330.773438 Z M 582 421.101562 L 582 388.898438 L 567.59375 386.019531 C 566.5 382.609375 565.136719 379.285156 563.488281 376.140625 L 571.652344 363.894531 L 548.878906 341.125 L 536.636719 349.285156 C 533.488281 347.636719 530.167969 346.273438 526.753906 345.183594 L 523.878906 330.773438 L 513.484375 330.773438 L 513.484375 256.546875 C 513.484375 240.800781 500.683594 228 484.933594 228 L 336.484375 228 C 320.738281 228 307.933594 240.800781 307.933594 256.546875 L 307.933594 296.515625 L 245.128906 296.515625 C 235.671875 296.515625 228 304.1875 228 313.644531 L 228 416.417969 C 228 425.875 235.671875 433.546875 245.128906 433.546875 L 307.933594 433.546875 L 307.933594 553.453125 C 307.933594 569.199219 320.738281 582 336.484375 582 L 484.933594 582 C 500.683594 582 513.484375 569.199219 513.484375 553.453125 L 513.484375 479.226562 L 523.878906 479.226562 L 526.753906 464.816406 C 530.167969 463.726562 533.488281 462.363281 536.636719 460.714844 L 548.878906 468.878906 L 571.652344 446.105469 L 563.488281 433.859375 C 565.136719 430.714844 566.5 427.394531 567.59375 423.980469 L 582 421.101562 " fill-opacity="1" fill-rule="nonzero"/><path fill="rgb(0%, 0%, 0%)" d="M 502.066406 405 C 502.066406 401.855469 504.628906 399.289062 507.773438 399.289062 C 510.917969 399.289062 513.484375 401.855469 513.484375 405 C 513.484375 408.144531 510.917969 410.710938 507.773438 410.710938 C 504.628906 410.710938 502.066406 408.144531 502.066406 405 Z M 524.902344 405 C 524.902344 395.542969 517.230469 387.871094 507.773438 387.871094 C 498.316406 387.871094 490.644531 395.542969 490.644531 405 C 490.644531 414.457031 498.316406 422.128906 507.773438 422.128906 C 517.230469 422.128906 524.902344 414.457031 524.902344 405 " fill-opacity="1" fill-rule="nonzero"/><path fill="rgb(0%, 0%, 0%)" d="M 299.371094 342.195312 L 316.5 342.195312 C 321.226562 342.195312 325.066406 346.03125 325.066406 350.757812 L 336.484375 350.757812 C 336.484375 339.742188 327.519531 330.773438 316.5 330.773438 L 313.644531 330.773438 L 313.644531 319.355469 L 302.226562 319.355469 L 302.226562 330.773438 L 299.371094 330.773438 C 288.351562 330.773438 279.386719 339.742188 279.386719 350.757812 C 279.386719 361.777344 288.351562 370.742188 299.371094 370.742188 L 316.5 370.742188 C 321.226562 370.742188 325.066406 374.578125 325.066406 379.308594 C 325.066406 384.035156 321.226562 387.871094 316.5 387.871094 L 299.371094 387.871094 C 294.644531 387.871094 290.804688 384.035156 290.804688 379.308594 L 279.386719 379.308594 C 279.386719 390.324219 288.351562 399.289062 299.371094 399.289062 L 302.226562 399.289062 L 302.226562 410.710938 L 313.644531 410.710938 L 313.644531 399.289062 L 316.5 399.289062 C 327.519531 399.289062 336.484375 390.324219 336.484375 379.308594 C 336.484375 368.289062 327.519531 359.324219 316.5 359.324219 L 299.371094 359.324219 C 294.644531 359.324219 290.804688 355.488281 290.804688 350.757812 C 290.804688 346.03125 294.644531 342.195312 299.371094 342.195312 " fill-opacity="1" fill-rule="nonzero"/><path fill="rgb(0%, 0%, 0%)" d="M 433.546875 479.226562 L 444.96875 479.226562 L 444.96875 502.066406 L 387.871094 502.066406 L 387.871094 513.484375 L 456.386719 513.484375 L 456.386719 467.808594 L 433.546875 467.808594 L 433.546875 479.226562 " fill-opacity="1" fill-rule="nonzero"/><path fill="rgb(0%, 0%, 0%)" d="M 365.03125 479.226562 L 422.128906 479.226562 L 422.128906 467.808594 L 353.613281 467.808594 L 353.613281 513.484375 L 376.453125 513.484375 L 376.453125 502.066406 L 365.03125 502.066406 L 365.03125 479.226562 " fill-opacity="1" fill-rule="nonzero"/><path fill="rgb(0%, 0%, 0%)" d="M 250.839844 330.773438 L 262.257812 330.773438 L 262.257812 319.355469 L 250.839844 319.355469 L 250.839844 330.773438 " fill-opacity="1" fill-rule="nonzero"/><path fill="rgb(0%, 0%, 0%)" d="M 365.03125 319.355469 L 353.613281 319.355469 L 353.613281 330.773438 L 365.03125 330.773438 L 365.03125 319.355469 " fill-opacity="1" fill-rule="nonzero"/><path fill="rgb(0%, 0%, 0%)" d="M 250.839844 410.710938 L 262.257812 410.710938 L 262.257812 399.289062 L 250.839844 399.289062 L 250.839844 410.710938 " fill-opacity="1" fill-rule="nonzero"/><path fill="rgb(0%, 0%, 0%)" d="M 365.03125 399.289062 L 353.613281 399.289062 L 353.613281 410.710938 L 365.03125 410.710938 L 365.03125 399.289062 " fill-opacity="1" fill-rule="nonzero"/><path fill="rgb(0%, 0%, 0%)" d="M 507.773438 433.546875 C 492.027344 433.546875 479.226562 420.746094 479.226562 405 C 479.226562 399.066406 481.054688 393.359375 484.511719 388.472656 L 475.210938 381.871094 C 470.371094 388.675781 467.804688 396.679688 467.804688 405 C 467.804688 427.035156 485.738281 444.96875 507.773438 444.96875 C 516.09375 444.96875 524.101562 442.402344 530.902344 437.5625 L 524.300781 428.261719 C 519.417969 431.71875 513.707031 433.546875 507.773438 433.546875 " fill-opacity="1" fill-rule="nonzero"/><path fill="rgb(0%, 0%, 0%)" d="M 507.773438 365.03125 C 499.453125 365.03125 491.449219 367.597656 484.644531 372.4375 L 491.246094 381.738281 C 496.132812 378.28125 501.839844 376.453125 507.773438 376.453125 C 523.519531 376.453125 536.324219 389.253906 536.324219 405 C 536.324219 410.933594 534.492188 416.644531 531.035156 421.527344 L 540.335938 428.128906 C 545.175781 421.328125 547.742188 413.320312 547.742188 405 C 547.742188 382.964844 529.808594 365.03125 507.773438 365.03125 " fill-opacity="1" fill-rule="nonzero"/></svg>