<?xml version="1.0" encoding="UTF-8"?><svg xmlns="http://www.w3.org/2000/svg" xmlns:xlink="http://www.w3.org/1999/xlink" width="810" zoomAndPan="magnify" viewBox="0 0 810 809.999993" height="809.999993" preserveAspectRatio="xMidYMid meet" version="1.0"><defs><clipPath id="clip-0"><path d="M 231.445312 238.390625 L 578.695312 238.390625 L 578.695312 328 L 231.445312 328 Z M 231.445312 238.390625 " clip-rule="nonzero"/></clipPath><clipPath id="clip-1"><path d="M 522 454 L 578.695312 454 L 578.695312 493 L 522 493 Z M 522 454 " clip-rule="nonzero"/></clipPath><clipPath id="clip-2"><path d="M 340 365 L 514 365 L 514 571.390625 L 340 571.390625 Z M 340 365 " clip-rule="nonzero"/></clipPath><clipPath id="clip-3"><path d="M 231.445312 346 L 375 346 L 375 493 L 231.445312 493 Z M 231.445312 346 " clip-rule="nonzero"/></clipPath></defs><g clip-path="url(#clip-0)"><path fill="rgb(0%, 0%, 0%)" d="M 559.566406 238.390625 C 550.898438 238.390625 543.859375 244.070312 541.421875 251.914062 L 529.777344 251.914062 C 498.632812 251.914062 472.90625 275.71875 470.472656 306.558594 C 461.804688 313.320312 450.972656 317.109375 439.597656 316.835938 C 430.390625 310.34375 419.832031 306.828125 408.457031 306.015625 C 406.5625 306.015625 404.394531 306.015625 402.5 306.015625 C 391.125 306.558594 380.566406 310.34375 371.355469 316.835938 C 359.984375 317.109375 349.152344 313.320312 340.484375 306.558594 C 337.507812 275.71875 311.78125 251.914062 280.636719 251.914062 L 268.992188 251.914062 C 266.558594 244.070312 259.515625 238.390625 250.851562 238.390625 C 240.289062 238.390625 231.894531 246.773438 231.894531 257.324219 C 231.894531 267.875 240.289062 276.261719 250.851562 276.261719 C 259.515625 276.261719 266.558594 270.582031 268.992188 262.734375 L 280.636719 262.734375 C 306.90625 262.734375 328.300781 283.292969 329.382812 309.535156 C 329.382812 311.15625 330.195312 312.507812 331.277344 313.320312 C 342.921875 323.332031 357.816406 328.46875 372.980469 327.660156 C 373.792969 327.660156 374.605469 327.386719 375.148438 327.117188 C 375.417969 326.847656 375.691406 326.847656 375.960938 326.578125 C 383.542969 320.894531 392.75 317.378906 402.230469 317.109375 C 402.230469 317.109375 402.5 317.109375 402.5 317.109375 C 404.125 317.109375 405.75 317.109375 407.375 317.109375 C 407.375 317.109375 407.375 317.109375 407.644531 317.109375 C 417.394531 317.648438 426.601562 320.894531 434.183594 326.578125 C 434.726562 327.117188 435.539062 327.386719 436.351562 327.660156 C 436.621094 327.660156 436.890625 327.660156 437.164062 327.660156 C 438.246094 327.660156 439.328125 327.660156 440.140625 327.660156 C 454.492188 327.660156 468.035156 322.519531 478.867188 313.320312 C 480.21875 312.238281 480.761719 310.617188 480.761719 308.992188 C 482.117188 283.023438 503.238281 263.007812 529.503906 263.007812 L 541.148438 263.007812 C 543.585938 270.851562 550.628906 276.53125 559.292969 276.53125 C 569.855469 276.53125 578.25 268.144531 578.25 257.597656 C 578.25 247.046875 570.125 238.390625 559.566406 238.390625 Z M 250.851562 265.441406 C 246.246094 265.441406 242.726562 261.925781 242.726562 257.324219 C 242.726562 252.726562 246.246094 249.210938 250.851562 249.210938 C 255.453125 249.210938 258.972656 252.726562 258.972656 257.324219 C 258.972656 261.925781 255.453125 265.441406 250.851562 265.441406 Z M 559.566406 265.441406 C 554.960938 265.441406 551.441406 261.925781 551.441406 257.324219 C 551.441406 252.726562 554.960938 249.210938 559.566406 249.210938 C 564.167969 249.210938 567.6875 252.726562 567.6875 257.324219 C 567.6875 261.925781 564.167969 265.441406 559.566406 265.441406 Z M 559.566406 265.441406 " fill-opacity="1" fill-rule="nonzero"/></g><path fill="rgb(0%, 0%, 0%)" d="M 459.640625 389.605469 C 462.347656 383.925781 463.972656 377.433594 464.511719 370.941406 L 514.339844 370.941406 C 516.777344 378.785156 523.820312 384.464844 532.484375 384.464844 C 543.046875 384.464844 551.441406 376.078125 551.441406 365.53125 C 551.441406 354.980469 543.046875 346.59375 532.484375 346.59375 C 523.820312 346.59375 516.777344 352.273438 514.339844 360.121094 L 453.953125 360.121094 L 453.953125 365.53125 C 453.953125 374.996094 451.242188 383.925781 446.640625 391.230469 C 447.722656 391.5 448.804688 392.039062 449.617188 392.582031 C 452.867188 390.957031 456.117188 390.148438 459.640625 389.605469 Z M 532.484375 357.414062 C 537.089844 357.414062 540.609375 360.929688 540.609375 365.53125 C 540.609375 370.128906 537.089844 373.644531 532.484375 373.644531 C 527.878906 373.644531 524.359375 370.128906 524.359375 365.53125 C 524.359375 360.929688 527.878906 357.414062 532.484375 357.414062 Z M 532.484375 357.414062 " fill-opacity="1" fill-rule="nonzero"/><g clip-path="url(#clip-1)"><path fill="rgb(0%, 0%, 0%)" d="M 559.566406 454.796875 C 550.898438 454.796875 543.859375 460.480469 541.421875 468.324219 L 529.777344 468.324219 C 527.609375 468.324219 525.171875 468.054688 523.007812 467.785156 L 522.464844 478.605469 C 524.902344 478.875 527.070312 479.144531 529.503906 479.144531 L 541.148438 479.144531 C 543.585938 486.988281 550.628906 492.671875 559.292969 492.671875 C 569.855469 492.671875 578.25 484.285156 578.25 473.734375 C 578.25 463.183594 570.125 454.796875 559.566406 454.796875 Z M 559.566406 481.851562 C 554.960938 481.851562 551.441406 478.332031 551.441406 473.734375 C 551.441406 469.136719 554.960938 465.621094 559.566406 465.621094 C 564.167969 465.621094 567.6875 469.136719 567.6875 473.734375 C 567.6875 478.332031 564.167969 481.851562 559.566406 481.851562 Z M 559.566406 481.851562 " fill-opacity="1" fill-rule="nonzero"/></g><g clip-path="url(#clip-2)"><path fill="rgb(0%, 0%, 0%)" d="M 435.265625 400.15625 C 432.828125 400.15625 430.664062 400.425781 428.496094 401.238281 L 428.496094 387.171875 C 428.496094 375.269531 418.746094 365.53125 406.832031 365.53125 C 394.917969 365.53125 385.167969 375.269531 385.167969 387.171875 L 385.167969 461.5625 L 378.398438 453.445312 C 374.335938 448.304688 368.109375 445.332031 361.609375 445.332031 C 356.464844 445.332031 351.589844 447.222656 347.796875 450.46875 C 338.859375 458.046875 337.507812 471.570312 345.089844 480.769531 L 385.980469 531.082031 L 386.792969 535.410156 C 390.042969 556.242188 407.644531 571.390625 428.765625 571.390625 L 467.222656 571.390625 C 490.238281 571.390625 508.925781 553.265625 509.738281 530.273438 L 513.527344 438.839844 C 513.800781 432.886719 511.632812 427.207031 507.570312 423.148438 C 503.507812 418.820312 498.09375 416.65625 492.136719 416.65625 C 489.699219 416.65625 487.261719 417.199219 485.09375 418.007812 C 483.199219 408 474.53125 400.425781 464.242188 400.425781 L 463.972656 400.425781 C 458.554688 400.425781 453.679688 402.320312 449.890625 405.835938 C 446.097656 402.589844 441.222656 400.425781 435.808594 400.425781 L 435.265625 400.425781 Z M 446.097656 421.527344 L 446.097656 454.796875 L 453.140625 454.257812 L 453.140625 421.527344 C 453.140625 415.574219 457.742188 410.976562 463.699219 410.976562 L 463.972656 410.976562 C 469.660156 410.976562 474.53125 415.574219 474.53125 421.527344 L 474.53125 452.90625 L 481.574219 452.363281 L 481.574219 437.757812 C 481.574219 431.804688 486.175781 427.207031 492.136719 427.207031 C 498.09375 427.207031 502.96875 432.074219 502.695312 438.027344 L 498.90625 529.460938 C 498.363281 546.503906 484.28125 560.296875 467.222656 560.296875 L 428.496094 560.296875 C 412.789062 560.296875 399.519531 548.9375 397.082031 533.519531 L 396 526.214844 L 353.484375 473.734375 C 349.691406 469.136719 350.503906 462.375 354.839844 458.585938 C 356.734375 456.964844 359.441406 456.152344 361.878906 456.152344 C 365.128906 456.152344 368.109375 457.503906 370.273438 460.210938 L 396.269531 492.128906 L 396.269531 387.171875 C 396.269531 381.21875 401.144531 376.351562 407.101562 376.351562 C 413.0625 376.351562 417.933594 381.21875 417.933594 387.171875 L 417.933594 456.691406 L 424.976562 456.152344 L 424.976562 421.527344 C 424.976562 415.574219 429.578125 410.976562 435.539062 410.976562 L 435.808594 410.976562 C 441.222656 410.976562 446.097656 415.574219 446.097656 421.527344 Z M 446.097656 421.527344 " fill-opacity="1" fill-rule="nonzero"/></g><path fill="rgb(0%, 0%, 0%)" d="M 405.207031 327.660156 C 384.355469 327.660156 367.296875 344.699219 367.296875 365.53125 C 367.296875 373.644531 370.003906 381.21875 374.335938 387.441406 L 374.335938 386.898438 C 374.335938 380.949219 375.960938 375.539062 378.667969 370.941406 C 378.398438 369.046875 378.128906 367.421875 378.128906 365.257812 C 378.128906 350.382812 390.3125 338.207031 405.207031 338.207031 C 420.101562 338.207031 432.289062 350.382812 432.289062 365.257812 C 432.289062 365.800781 432.289062 366.339844 432.289062 366.882812 C 435.808594 371.480469 438.246094 376.890625 439.058594 382.570312 C 441.765625 377.433594 443.390625 371.480469 443.390625 365.257812 C 443.121094 344.699219 426.058594 327.660156 405.207031 327.660156 Z M 405.207031 327.660156 " fill-opacity="1" fill-rule="nonzero"/><g clip-path="url(#clip-3)"><path fill="rgb(0%, 0%, 0%)" d="M 329.382812 422.335938 C 328.027344 448.304688 306.90625 468.324219 280.636719 468.324219 L 268.992188 468.324219 C 266.558594 460.480469 259.515625 454.796875 250.851562 454.796875 C 240.289062 454.796875 231.894531 463.183594 231.894531 473.734375 C 231.894531 484.285156 240.289062 492.671875 250.851562 492.671875 C 259.515625 492.671875 266.558594 486.988281 268.992188 479.144531 L 280.636719 479.144531 C 311.78125 479.144531 337.507812 455.339844 339.945312 424.5 C 348.609375 417.738281 359.441406 413.953125 370.816406 414.222656 C 371.628906 414.761719 372.441406 415.304688 373.253906 415.84375 C 373.253906 415.84375 373.523438 415.84375 373.523438 416.117188 C 373.792969 416.386719 374.066406 416.386719 374.335938 416.65625 L 374.335938 403.402344 C 363.503906 394.476562 356.464844 380.949219 356.464844 365.800781 L 356.464844 360.390625 L 296.074219 360.390625 C 293.636719 352.546875 286.597656 346.863281 277.929688 346.863281 C 267.371094 346.863281 258.972656 355.25 258.972656 365.800781 C 258.972656 376.351562 267.371094 384.734375 277.929688 384.734375 C 286.597656 384.734375 293.636719 379.054688 296.074219 371.210938 L 345.902344 371.210938 C 346.984375 383.925781 352.128906 395.285156 359.984375 404.484375 C 349.421875 406.378906 339.402344 410.976562 331.007812 418.007812 C 329.925781 418.820312 329.382812 420.445312 329.382812 422.335938 Z M 250.851562 481.851562 C 246.246094 481.851562 242.726562 478.332031 242.726562 473.734375 C 242.726562 469.136719 246.246094 465.621094 250.851562 465.621094 C 255.453125 465.621094 258.972656 469.136719 258.972656 473.734375 C 258.972656 478.332031 255.453125 481.851562 250.851562 481.851562 Z M 277.929688 373.644531 C 273.328125 373.644531 269.804688 370.128906 269.804688 365.53125 C 269.804688 360.929688 273.328125 357.414062 277.929688 357.414062 C 282.535156 357.414062 286.054688 360.929688 286.054688 365.53125 C 286.054688 370.128906 282.535156 373.644531 277.929688 373.644531 Z M 277.929688 373.644531 " fill-opacity="1" fill-rule="nonzero"/></g></svg>