<?xml version="1.0" encoding="UTF-8"?>
<svg width="313px" height="81px" viewBox="0 0 313 81" version="1.1" xmlns="http://www.w3.org/2000/svg" xmlns:xlink="http://www.w3.org/1999/xlink">
    <!-- Generator: Sketch 62 (91390) - https://sketch.com -->
    <title>Cambridge - Horizontal - White</title>
    <desc>Created with Sketch.</desc>
    <g id="Page-1" stroke="none" stroke-width="1" fill="none" fill-rule="evenodd">
        <g id="I9-Design-Preset" transform="translate(-413.000000, -338.000000)">
            <g id="Cambridge---Horizontal---White" transform="translate(413.000000, 338.000000)">
                <path d="M19.3786123,2.06762676 C19.1878145,2.95671101 19.1958697,4.11960285 19.2043987,5.28202044 C19.3288596,11.9858801 20.2596306,17.7304646 27.2158531,22.7242915 C35.2479982,28.4911664 51.3126043,31.9256179 62.268631,37.8178562 C73.2252894,43.7107268 79.0738422,52.062807 83.1099738,59.6337767 C87.1465792,67.2044303 89.3704476,73.9947638 91.5946319,80.7852554 L91.5946319,80.7852554 L43.747819,80.7852554 C19.5863102,80.7852554 5.97046648e-14,61.1816117 5.97046648e-14,36.9983304 C5.97046648e-14,23.1051243 6.46596054,11.8564064 16.5485502,4.01162907 C17.4981168,3.27304415 18.339017,2.66994024 19.3786123,2.06762676 Z M22.9097931,26.0852323 C23.6009613,27.6495084 24.5063032,29.1745788 25.5736968,30.6474802 C26.7443866,32.2634509 28.1085593,33.8152381 29.6008256,35.2890881 C31.2865747,36.9543821 33.1392718,38.5259302 35.0688883,39.9863428 C37.2210496,41.6148024 39.4610284,43.0990862 41.6683126,44.4178523 C42.7946198,45.0905147 43.9305616,45.7295045 45.0570268,46.3443069 L45.0570268,46.3443069 L48.4373699,48.1484018 C51.2758031,49.6492848 53.9777716,51.0774475 56.4478766,52.6991093 C58.9573099,54.3460652 61.2321946,56.1922113 63.1749205,58.5094583 C64.3685124,59.9354078 65.4115825,61.5145441 66.3344563,63.2098747 C67.251802,64.8957201 68.0451607,66.6868517 68.747543,68.5527588 C69.2011616,69.75786 69.6216117,71.005803 70.0160009,72.2820436 C70.3419998,73.3374359 70.6495191,74.4106921 70.9436131,75.495963 L70.9436131,75.495963 L84.2516017,75.495963 C83.5577484,73.5386813 82.8081405,71.5516792 81.9583953,69.5126663 C80.947546,67.0888683 79.8057602,64.6277617 78.4652793,62.1129053 C77.5412999,60.3790013 76.5114972,58.5964064 75.3313307,56.81476 C74.157324,55.0432312 72.8411667,53.2830846 71.3421088,51.5882283 C69.8695857,49.9235666 68.1977358,48.3000077 66.28344,46.7624484 C64.3719872,45.2289994 62.2163511,43.78155 59.7708856,42.4662618 C57.438193,41.2115211 54.8428375,40.0688645 52.1372362,38.9907075 C49.408417,37.9021168 46.5573482,36.8732832 43.7433966,35.8591517 C36.2781168,33.1664469 29.0805541,30.5695431 24.1405021,27.0217428 C23.7134183,26.7152111 23.3032346,26.4028302 22.9097931,26.0852323 Z M14.9398784,19.5313977 C14.5235348,21.1320339 14.197536,22.7363061 13.9835202,24.3518026 C13.7184882,26.3558782 13.6199304,28.3944168 13.7199097,30.4166725 C13.8143609,32.3279506 14.0857108,34.2240524 14.5579669,36.0603971 C14.9954751,37.7614189 15.6105137,39.4221284 16.422352,41.007272 C17.1879124,42.5038866 18.1347939,43.9393214 19.2778433,45.2813264 C20.6356981,46.8748487 22.2972816,48.3706728 24.1046485,49.8119568 C25.9586093,51.2902333 27.9057577,52.6717602 29.8440612,54.0461731 L29.8440612,54.0461731 L29.8931821,54.0788972 C33.7220896,56.7940505 37.5277792,59.4927627 40.4818282,62.668583 C41.6744724,63.9501986 42.7213332,65.3026374 43.6453126,66.7097744 C44.5650275,68.1082167 45.3596498,69.5575631 46.0572937,71.0431116 C46.4538941,71.8877733 46.8129036,72.7261114 47.1393763,73.5552805 C47.3846652,74.1803586 47.6220568,74.8288336 47.8512353,75.495963 L47.8512353,75.495963 L64.5605737,75.495963 L63.9856532,73.5960671 C63.680819,72.6369501 63.3516612,71.6775169 62.9917041,70.7217197 C62.3913544,69.1269327 61.7268789,67.6145094 60.9747439,66.2198612 C60.2292426,64.8365953 59.3992406,63.5714209 58.4653106,62.4610141 C55.3670576,58.7756777 50.719836,56.3182071 45.5719281,53.5967303 C44.4942681,53.0271409 43.3937059,52.4450627 42.1266695,51.7527974 C40.9442918,51.1065356 39.739012,50.4272335 38.513989,49.6959206 C36.0999546,48.2538462 33.6581218,46.635188 31.3219544,44.8650819 C29.2050149,43.261284 27.1630994,41.5261153 25.2901852,39.6758589 C23.5347823,37.9416387 21.9212141,36.0997609 20.5260842,34.1652439 C19.2222466,32.3567226 18.1111021,30.4713707 17.2555129,28.5238905 C16.2651965,26.2684558 15.6158838,23.953422 15.2229162,21.5950723 C15.108248,20.9089724 15.0150603,20.2174976 14.9398784,19.5313977 Z M8.01413938,22.6959938 C7.36893324,24.3114903 6.83081395,25.9807365 6.40720493,27.6953538 C5.67386537,30.6658184 5.28437251,33.782514 5.28437251,36.9983304 C5.28437251,42.2180644 6.32001918,47.1926046 8.19498663,51.7244997 C10.142135,56.4293426 12.9998375,60.6681434 16.5494979,64.2208444 C22.9652319,70.6420436 31.6357915,74.8068595 41.2657102,75.4202391 L41.2657102,75.4202391 L41.1480411,75.1317293 L40.4938321,73.6461808 C39.9252293,72.4349142 39.2782858,71.2554232 38.5332583,70.1213033 C37.7936009,68.9960362 36.9492259,67.9057066 35.9786527,66.862487 C33.4028824,64.093584 29.8865484,61.6007018 26.3451012,59.0907461 C22.0881622,56.0726971 17.7985285,53.0307769 14.6058243,49.2826798 C13.1552556,47.5792867 11.9499758,45.751953 10.9699258,43.8384615 C9.94201847,41.8316985 9.16382248,39.7310314 8.61054045,37.5794602 C8.03419842,35.3398342 7.70298733,33.0512011 7.58658172,30.762726 C7.46291063,28.3504685 7.57757885,25.9291999 7.89188979,23.55599 L7.89188979,23.55599 L8.01413938,22.6959938 Z M65.5611566,2.24094247e-14 C68.6745723,2.24094247e-14 71.2217546,2.54931945 71.2217546,5.66554078 L71.2217546,5.66554078 L71.2217546,11.3312396 C71.2217546,12.7862772 70.9650936,13.4118296 70.0611732,14.7279082 L70.0611732,14.7279082 L70.0611732,27.5725198 C70.0611732,31.0822209 67.6180769,34.0487334 64.3497169,34.8513437 C63.4228945,33.5491768 62.3142771,32.8335146 60.7070268,31.9932794 C58.58219,30.8805013 56.6001357,30.1093503 52.5061962,28.7429998 C48.4122566,27.3775978 42.9141843,25.7777521 38.7223187,24.2164797 C34.5310849,22.6556815 31.6455841,21.133931 29.3165242,19.1432928 C27.3390503,17.4534953 25.7630731,15.4266551 24.7896569,13.6170272 C24.4431251,12.8512512 24.0980148,12.0854752 23.7922329,11.1488066 C23.544101,10.3879314 23.3225039,9.51402352 23.1497119,8.43586659 C22.9115305,6.9553769 22.7629041,5.08757278 22.6531322,3.07322152 C22.5550482,1.27133989 24.114915,2.24094247e-14 26.2572836,2.24094247e-14 L26.2572836,2.24094247e-14 L65.5611566,2.24094247e-14 Z M65.6575032,20.1085753 L65.2218903,20.5513784 C63.1161649,22.6588433 60.7822087,24.5396106 58.2620351,26.1528938 L58.2620351,26.1528938 L59.3482243,26.570561 C60.8524943,27.1773009 60.9662149,27.1885252 62.222511,27.8458531 C62.6680744,28.0788741 64.3416617,29.3367766 64.6796644,29.82337 L64.6796644,29.82337 L65.0059792,29.465776 C65.4134778,28.9464585 65.6575032,28.2886563 65.6575032,27.5725198 L65.6575032,27.5725198 L65.6575032,20.1085753 Z M65.5611566,4.40779641 L27.1406711,4.40779641 C27.2329111,5.71043763 27.3429989,6.86574128 27.4845178,7.74707924 C27.5516445,8.16743397 27.6273003,8.54210141 27.7083262,8.87866975 L27.7083262,8.87866975 L27.9720947,9.78877964 C28.0813927,10.1239252 28.2053797,10.4465818 28.3356845,10.7594371 L28.3356845,10.7594371 L28.7340223,11.6690727 C29.1110375,12.3483748 29.5900853,13.0569231 30.1618469,13.7434972 C30.772621,14.4797108 31.4481526,15.1846231 32.1721734,15.8030615 C33.1051557,16.6002969 34.1518585,17.3055254 35.3849367,17.9669636 C36.741528,18.6947985 38.3385119,19.3889609 40.2529656,20.1014613 C42.6742655,21.0030345 45.9265151,22.0287064 48.9974436,22.9971506 C50.088529,23.3413071 51.149131,23.6764527 52.5970147,24.1515057 C56.0918681,22.3859842 59.2657769,20.0753769 62.006284,17.3328745 C63.807491,15.5300443 65.4223228,13.5395643 66.8179265,11.3940004 L66.8179265,11.3940004 L66.8179265,5.66554078 C66.8179265,4.9732755 66.2529566,4.40779641 65.5611566,4.40779641 L65.5611566,4.40779641 Z M42.2771913,6.4180374 C42.2771913,9.84521689 39.5017783,10.3757586 36.0775264,10.3757586 C32.6539062,10.3757586 29.8780194,9.84521689 29.8780194,6.4180374 L29.8780194,6.4180374 L42.2771913,6.4180374 Z" id="Clip-2110" fill="#DAA859"></path>
                <path d="M202.028405,50.9263158 L202.028405,57.8315789 L210.418454,57.8315789 L210.418454,50.9263158 L212.79395,50.9263158 L212.79395,66.5074224 L210.418454,66.5074224 L210.418454,59.0203971 L202.028405,59.0203971 L202.028405,66.5074224 L199.65291,66.5074224 L199.65291,50.9263158 L202.028405,50.9263158 Z M108.479921,50.9263158 L112.472776,63.2444959 C113.761609,59.8045113 115.202069,54.8468864 116.263461,50.9263158 L116.263461,50.9263158 L117.628107,50.9263158 L121.696775,63.0927318 C122.909795,59.0962792 123.945915,54.9227685 124.678781,50.9263158 L124.678781,50.9263158 L126.826836,50.9263158 C125.310562,56.0357046 123.718474,61.4233275 121.747318,66.5074224 L121.747318,66.5074224 L120.458485,66.5074224 L116.642529,54.7710044 C115.606409,58.337459 114.014321,63.2192019 112.573861,66.5074224 L112.573861,66.5074224 L111.285028,66.5074224 L105.902256,50.9263158 L108.479921,50.9263158 Z M142.812294,50.9263158 L142.812294,52.317486 C141.245477,52.165722 140.007187,52.115134 138.187658,52.115134 L138.187658,52.115134 L136.064875,52.115134 L136.064875,58.059225 L136.974639,58.059225 C138.465642,58.059225 140.032458,58.033931 141.574003,57.932755 L141.574003,57.932755 L141.574003,59.3239252 C140.032458,59.2227492 138.465642,59.1974552 136.974639,59.1974552 L136.974639,59.1974552 L136.064875,59.1974552 L136.064875,65.2933102 L138.314014,65.2933102 C140.133543,65.2933102 141.371833,65.2427222 142.93865,65.0909582 L142.93865,65.0909582 L142.93865,66.5074224 L133.739921,66.5074224 L133.739921,50.9263158 L142.812294,50.9263158 Z M156.346442,50.9263158 L162.184097,66.5074224 L159.58116,66.5074224 L157.963801,61.8533256 L152.126146,61.8533256 L150.458245,66.5074224 L148.638716,66.5074224 L154.931253,50.9263158 L156.346442,50.9263158 Z M171.599034,50.9263158 L171.599034,65.2174282 L172.812054,65.2174282 C174.479955,65.2174282 176.072043,65.1415462 177.638859,65.0150762 L177.638859,65.0150762 L177.638859,66.5074224 L169.223539,66.5074224 L169.223539,50.9263158 L171.599034,50.9263158 Z M193.219977,50.9263158 L193.219977,52.317486 C191.62789,52.140428 191.02138,52.115134 189.682005,52.115134 L188.317358,52.115134 L188.317358,66.5074224 L185.967134,66.5074224 L185.967134,52.115134 L184.305639,52.1156406 C183.16412,52.1199234 182.536078,52.1540478 181.089786,52.317486 L181.089786,52.317486 L181.089786,50.9263158 L193.219977,50.9263158 Z M155.108152,53.5821862 L152.530486,60.7656834 L157.584733,60.7656834 L155.108152,53.5821862 Z M284.597943,14.7179487 C287.156656,14.7179487 289.146765,15.2870638 290.852573,16.4569115 L290.852573,16.4569115 L289.589012,18.5120494 C288.072738,17.4370542 286.588053,16.9627916 284.882245,16.9627916 C280.396601,16.9627916 277.995834,20.5671872 277.995834,25.0252554 C277.995834,29.3884712 279.985944,33.1509543 284.471587,33.1509543 C285.482437,33.1509543 286.588053,32.9612493 287.567313,32.4237517 L287.567313,32.4237517 L287.567313,26.5745132 L283.460738,26.5745132 L283.460738,24.4245228 L291.042108,24.4245228 L291.042108,33.3406593 C289.178354,34.6685946 286.461697,35.3957972 283.618683,35.3957972 C277.45882,35.3957972 273.668136,31.5384615 273.668136,25.309813 C273.668136,19.1443995 278.059012,14.7179487 284.597943,14.7179487 Z M116.61094,14.7179487 C118.758995,14.7179487 120.654337,15.2554463 122.170611,16.235589 L122.170611,16.235589 L120.970228,18.3539618 C119.738255,17.4370542 118.474693,17.0260266 116.990009,17.0260266 C112.567543,17.0260266 110.35631,20.6304222 110.35631,24.8671679 C110.35631,29.1039136 112.314831,32.9296318 116.705707,32.9296318 C118.316748,32.9296318 119.833022,32.4869867 121.128173,31.506844 L121.128173,31.506844 L122.233789,33.3722768 C120.527981,34.7318296 118.127214,35.3957972 115.789625,35.3957972 C109.69294,35.3957972 105.902256,31.443609 105.902256,25.246578 C105.902256,19.1443995 110.324721,14.7179487 116.61094,14.7179487 Z M253.654724,14.9076537 C262.215354,14.9076537 265.658559,18.9546944 265.658559,24.7723154 C265.658559,29.9892038 262.499655,35.2377097 253.623135,35.2377097 C251.759382,35.2377097 250.17993,35.1744746 247.905519,34.8266821 L247.905519,34.8266821 L247.905519,15.2870638 C249.958806,15.0025063 251.538258,14.9076537 253.654724,14.9076537 Z M191.150544,14.9076537 C195.825722,14.9076537 199.332105,16.1407365 199.332105,19.9032196 C199.332105,21.8635049 198.163311,23.6024677 195.983667,24.3929053 C198.921448,24.9936379 200.5009,26.8274532 200.5009,29.2936187 C200.5009,33.1825718 197.026106,35.2060922 191.813914,35.2060922 C190.171284,35.2060922 188.275942,35.1112396 186.001531,34.7950646 L186.001531,34.7950646 L186.001531,15.2870638 C187.486216,15.0025063 189.507914,14.9076537 191.150544,14.9076537 Z M214.701928,14.9076537 C220.640668,14.9076537 223.51527,17.0576441 223.51527,20.9782148 C223.51527,23.4127627 221.967407,25.4679005 219.440284,26.4796607 L219.440284,26.4796607 L224.747243,34.8899171 L220.198421,34.8899171 L215.649599,27.1752458 L215.491654,27.1752458 C214.796695,27.1752458 214.259682,27.1436283 213.627901,27.1120108 L213.627901,27.1120108 L213.627901,34.8899171 L209.584504,34.8899171 L209.584504,15.2870638 C210.879654,15.0341238 213.501545,14.9076537 214.701928,14.9076537 Z M237.463586,15.1922113 L237.463586,34.8899171 L233.3886,34.8899171 L233.3886,15.1922113 L237.463586,15.1922113 Z M159.133297,15.1922113 L165.387927,28.7561211 L171.421434,15.1922113 L175.054173,15.1922113 L176.128201,34.8899171 L172.21116,34.8899171 L171.453023,20.3774822 L165.482694,33.4671294 L163.397818,33.4671294 L157.427489,20.4407172 L156.890476,34.8899171 L154.079051,34.8899171 L155.405791,15.1922113 L159.133297,15.1922113 Z M312.824505,15.1922113 L312.824505,17.6583767 C310.865985,17.4686717 309.507656,17.4054367 307.043711,17.4054367 L307.043711,17.4054367 L304.832478,17.4054367 L304.832478,23.8554078 L305.527437,23.8554078 C307.391191,23.8554078 309.349711,23.8237902 311.276642,23.6973202 L311.276642,23.6973202 L311.276642,26.1634856 C309.349711,26.0686331 307.391191,26.0370156 305.527437,26.0370156 L305.527437,26.0370156 L304.832478,26.0370156 L304.832478,32.6766917 L307.201656,32.6766917 C309.665601,32.6766917 311.02393,32.5818392 312.982451,32.3605167 L312.982451,32.3605167 L312.982451,34.8899171 L300.789081,34.8899171 L300.789081,15.1922113 L312.824505,15.1922113 Z M139.214653,15.1922113 L146.22742,34.8899171 L141.773365,34.8899171 L140.130735,29.6730287 L133.212735,29.6730287 L131.443749,34.8899171 L128.44279,34.8899171 L136.02416,15.1922113 L139.214653,15.1922113 Z M191.403256,25.5943705 L190.013339,25.5943705 L190.013339,33.1193368 C190.581941,33.2141893 191.055777,33.2458068 191.466435,33.2458068 C194.56216,33.2458068 196.362736,31.8862541 196.362736,29.2936187 C196.362736,26.7958357 194.530571,25.5943705 191.403256,25.5943705 L191.403256,25.5943705 Z M253.78108,16.9311741 C253.275656,16.9311741 252.580697,16.9944091 251.948916,17.0892616 L251.948916,17.0892616 L251.948916,32.9928668 C252.612286,33.0877193 253.307245,33.1193368 253.907436,33.1193368 C259.309162,33.1193368 261.36245,29.1671486 261.36245,24.8671679 C261.36245,20.2193946 259.214395,16.9311741 253.78108,16.9311741 Z M136.813886,19.112782 L133.939283,27.5862734 L139.498954,27.5862734 L136.813886,19.112782 Z M214.923051,16.8363216 C214.512394,16.8363216 214.101736,16.8363216 213.627901,16.8995566 L213.627901,16.8995566 L213.627901,25.0884905 C214.006969,25.1517255 214.32286,25.183343 214.670339,25.183343 C217.955599,25.183343 219.408695,23.1914401 219.408695,20.8833623 C219.408695,18.3539618 217.987188,16.8363216 214.923051,16.8363216 Z M191.403256,16.8047041 C190.96101,16.8047041 190.518763,16.8363216 190.013339,16.8995566 L190.013339,16.8995566 L190.013339,23.6657027 L191.340078,23.6657027 C193.961969,23.6657027 195.383475,22.4642375 195.383475,20.0929246 C195.383475,17.9745518 193.961969,16.8047041 191.403256,16.8047041 Z" id="Combined-Shape" fill="#0D0D0D" fill-rule="nonzero"></path>
            </g>
        </g>
    </g>
</svg>