<svg xmlns="http://www.w3.org/2000/svg" xmlns:xlink="http://www.w3.org/1999/xlink" width="195" height="39" viewBox="0 0 195 39">
  <defs>
    <clipPath id="clip-white_1">
      <rect width="195" height="39"/>
    </clipPath>
  </defs>
  <g id="white_1" data-name="white – 1" clip-path="url(#clip-white_1)">
    <rect width="195" height="39" fill="#0d0d0d"/>
    <path id="Clip_2110" data-name="Clip 2110" d="M431,379.477H205.856a207.551,207.551,0,0,1-41.487-4.179A204.822,204.822,0,0,1,90.76,344.35a206.3,206.3,0,0,1-74.582-90.494A204.524,204.524,0,0,1,4.182,215.247,207.043,207.043,0,0,1,0,173.794c0-31.559,7.114-61.21,21.143-88.129A194.206,194.206,0,0,1,45.687,49.424a218.818,218.818,0,0,1,32.182-30.58A114.664,114.664,0,0,1,91.187,9.713c-.9,4.185-.859,9.733-.82,15.1.546,29.331,3.839,57.667,37.7,81.933,20.741,14.865,52.512,26.3,86.148,38.416,27.3,9.83,55.53,19.994,78.794,32.484a225.525,225.525,0,0,1,34.4,22.689,219.859,219.859,0,0,1,26.843,25.594c13.53,15.266,25.23,32.487,36.822,54.194,4.564,8.545,8.744,17.063,12.779,26.039,3.594,8,6.99,16.177,10.38,25.008,6.3,16.4,11.617,32.617,16.761,48.3l0,.012ZM107.8,122.532h0a118.453,118.453,0,0,0,12.535,21.43,176.71,176.71,0,0,0,18.95,21.8,259.822,259.822,0,0,0,25.73,22.065,344.552,344.552,0,0,0,31.053,20.817c4.721,2.815,9.937,5.775,15.946,9.049l15.907,8.474.073.038c13.38,7.063,26.018,13.734,37.621,21.338,13.246,8.679,23.3,17.351,31.655,27.293a134.969,134.969,0,0,1,14.867,22.079,197.916,197.916,0,0,1,11.355,25.1c2.024,5.368,4.032,11.262,5.968,17.518,1.459,4.716,2.887,9.654,4.366,15.1h62.621c-3.609-10.161-7.138-19.355-10.79-28.106-5.135-12.29-10.512-23.66-16.437-34.759-4.9-9.174-9.721-17.315-14.747-24.887A220.6,220.6,0,0,0,335.7,242.328a194.283,194.283,0,0,0-23.8-22.668,201.942,201.942,0,0,0-30.645-20.181,349.1,349.1,0,0,0-35.921-16.326c-13.023-5.186-26.481-10.027-39.5-14.709-17.9-6.444-34.8-12.529-50.577-19.25-8.468-3.607-15.79-7.049-22.385-10.524a164.273,164.273,0,0,1-19.28-11.739C111.6,125.5,109.649,124.02,107.8,122.532ZM70.3,91.746h0a186.4,186.4,0,0,0-4.5,22.643,158.091,158.091,0,0,0-1.24,28.489,132.776,132.776,0,0,0,3.944,26.51,112.388,112.388,0,0,0,8.772,23.237A104.108,104.108,0,0,0,90.712,212.7a163.74,163.74,0,0,0,22.713,21.282c8.774,6.983,18.043,13.544,27.007,19.889l.232.154c8.844,6.261,17.989,12.734,26.456,19.363a201.586,201.586,0,0,1,23.369,20.986,143.76,143.76,0,0,1,14.886,18.983,163.988,163.988,0,0,1,11.35,20.355c1.8,3.826,3.512,7.8,5.091,11.8,1.132,2.881,2.259,5.948,3.35,9.116h78.626l-2.706-8.924c-1.494-4.692-3.067-9.235-4.676-13.5a171.65,171.65,0,0,0-9.491-21.147A104.459,104.459,0,0,0,275.109,293.4c-14.583-17.316-36.969-29.131-60.669-41.639-4.734-2.5-10.094-5.324-16.213-8.662-6.272-3.423-11.833-6.583-17-9.662a373.085,373.085,0,0,1-33.842-22.692A287.423,287.423,0,0,1,119,186.372a206.75,206.75,0,0,1-22.418-25.885,146.2,146.2,0,0,1-15.39-26.5,134.945,134.945,0,0,1-9.565-32.548c-.515-3.081-.963-6.342-1.331-9.693ZM37.711,106.612a179.447,179.447,0,0,0-7.561,23.483,182.169,182.169,0,0,0-5.284,43.7A180.936,180.936,0,0,0,194.177,354.276l-.554-1.355-3.079-6.978a133.74,133.74,0,0,0-9.225-16.557A116.334,116.334,0,0,0,169.3,314.077c-12.127-13.015-29.007-24.957-45.331-36.507-9.862-6.98-20.06-14.2-29.5-21.75A187.547,187.547,0,0,1,68.728,231.5a133,133,0,0,1-17.109-25.573,142.215,142.215,0,0,1-11.1-29.4A161.461,161.461,0,0,1,35.7,144.5a185.768,185.768,0,0,1,1.437-33.853Zm265.088,57.1h0c-4.275-6-9.322-9.344-17.14-13.425-9.743-5.094-18.759-8.661-38.589-15.268-6.9-2.3-14.549-4.7-22.649-7.254-14.527-4.572-29.549-9.3-42.212-14.009A205.843,205.843,0,0,1,156.793,102.6,105.054,105.054,0,0,1,137.95,89.923a97.139,97.139,0,0,1-12.423-12.768,87.131,87.131,0,0,1-8.879-13.191,108.5,108.5,0,0,1-4.694-11.593,83.122,83.122,0,0,1-3.024-12.744,249.334,249.334,0,0,1-2.336-25.19,12.264,12.264,0,0,1,3.388-9.322,15.459,15.459,0,0,1,5.781-3.757A21.757,21.757,0,0,1,123.554,0H308.5a26.326,26.326,0,0,1,10.342,2.1,26.882,26.882,0,0,1,14.192,14.179,26.263,26.263,0,0,1,2.1,10.334V53.227A23.546,23.546,0,0,1,334,61.45a34.156,34.156,0,0,1-4.325,7.733v60.336A34.978,34.978,0,0,1,322,151.382a35.56,35.56,0,0,1-8.518,7.713,35.006,35.006,0,0,1-10.687,4.614Zm6.154-69.252-2.05,2.08a195,195,0,0,1-32.749,26.312l5.111,1.962c1.255.505,2.3.919,3.214,1.285l.027.011a82.71,82.71,0,0,1,10.284,4.7c2.2,1.149,9.982,7.018,11.562,9.289l1.535-1.68a14.251,14.251,0,0,0,3.066-8.893ZM127.711,20.705c.48,6.773,1.009,11.9,1.618,15.685.3,1.873.654,3.661,1.053,5.316l1.241,4.275c.463,1.417,1.022,2.908,1.711,4.56l1.875,4.273a63.315,63.315,0,0,0,6.718,9.745,79.515,79.515,0,0,0,9.46,9.674A84.31,84.31,0,0,0,166.5,84.4a185.94,185.94,0,0,0,22.906,10.026c11.407,4.24,26.526,9,41.147,13.6l.009,0c4.626,1.456,9.868,3.107,16.928,5.419a172.4,172.4,0,0,0,44.276-32.029,173.111,173.111,0,0,0,22.642-27.9V26.613a5.918,5.918,0,0,0-5.915-5.908Zm42.052,28.033a82.491,82.491,0,0,1-11.355-.641,29.867,29.867,0,0,1-9.273-2.617c-5.75-2.87-8.545-7.886-8.545-15.333h58.345c0,7.448-2.8,12.463-8.544,15.333a29.867,29.867,0,0,1-9.273,2.617A82.5,82.5,0,0,1,169.763,48.739Z" transform="translate(218 107.262)" fill="#fff"/>
  </g>
</svg>
